<?xml version="1.0" encoding="UTF-8"?>
<!DOCTYPE svg PUBLIC "-//W3C//DTD SVG 1.1//EN" "http://www.w3.org/Graphics/SVG/1.1/DTD/svg11.dtd">
<!-- Creator: CorelDRAW X7 -->
<svg xmlns="http://www.w3.org/2000/svg" xml:space="preserve" width="5.82677in" height="8.26772in" version="1.1" style="shape-rendering:geometricPrecision; text-rendering:geometricPrecision; image-rendering:optimizeQuality; fill-rule:evenodd; clip-rule:evenodd"
viewBox="0 0 5827 8268"
 xmlns:xlink="http://www.w3.org/1999/xlink">
 <defs>
  <style type="text/css">
   <![CDATA[
    .fil0 {fill:#FEFEFE}
   ]]>
  </style>
 </defs>
 <g id="Layer_x0020_1">
  <metadata id="CorelCorpID_0Corel-Layer"/>
  <path class="fil0" d="M4278 5665c0,-293 540,-293 540,0l0 41c0,399 -540,318 -540,42l0 -83zm-2947 332c-363,0 -359,-553 2,-565 377,-12 346,565 -2,565zm2781 -2656l208 0 0 788c0,96 29,125 124,125l913 0 0 705 -1245 0 0 -1618zm415 0l332 0c289,0 498,282 498,581l0 124 -830 0 0 -705zm789 1826c-49,208 -123,285 -374,290 -85,-319 -702,-322 -788,0 -512,0 -1024,0 -1536,0 -175,0 -645,23 -785,-3 -168,-31 -92,-52 -228,-145 -424,-288 -615,148 -772,148l-373 0 0 -290 3030 0c-3,-133 13,-208 -125,-208l-2947 0c-97,0 -166,69 -166,166 0,623 -74,581 581,581 149,636 830,714 996,0l2242 0c7,325 241,498 498,498 450,0 380,-439 564,-556 174,-110 199,-47 327,-254 170,-275 105,-1086 105,-1514 0,-963 -1158,-789 -1660,-747 0,2376 -197,2035 581,2034 276,-1 553,0 830,0z"/>
  <path class="fil0" d="M1912 2303l208 0 332 2324 -332 42 -261 -1855c-24,-161 -149,-511 53,-511zm-1452 623c0,440 109,857 158,1253 45,360 -9,339 326,380 180,21 471,106 636,27 -16,-200 -86,-180 -295,-202 -183,-20 -287,-47 -452,-47 0,-465 -156,-906 -166,-1328 289,-68 671,-350 955,-374 4,184 298,2170 332,2241 94,46 416,2 549,-31 377,-95 -78,-182 350,-356 188,-77 289,-128 465,-199 594,-242 495,-130 386,-915 -72,-526 -14,-485 -256,-491 0,415 117,725 125,1079 -309,72 -732,355 -955,374 -6,-250 -90,-645 -127,-911 -36,-263 -122,-638 -122,-915l933 111c205,29 186,45 271,-70 -46,-170 -7,-103 -192,-140l-1012 -109 -126 -248c-790,-7 -645,231 -689,305 -50,86 -92,74 -207,125 -113,49 -887,358 -887,441z"/>
 </g>
</svg>
