<?xml version="1.0" encoding="UTF-8"?>
<!DOCTYPE svg PUBLIC "-//W3C//DTD SVG 1.1//EN" "http://www.w3.org/Graphics/SVG/1.1/DTD/svg11.dtd">
<!-- Creator: CorelDRAW X7 -->
<svg xmlns="http://www.w3.org/2000/svg" xml:space="preserve" width="5.82677in" height="8.26772in" version="1.1" style="shape-rendering:geometricPrecision; text-rendering:geometricPrecision; image-rendering:optimizeQuality; fill-rule:evenodd; clip-rule:evenodd"
viewBox="0 0 5827 8268"
 xmlns:xlink="http://www.w3.org/1999/xlink">
 <defs>
  <style type="text/css">
   <![CDATA[
    .fil0 {fill:#FEFEFE}
    .fil1 {fill:#A09FA0}
   ]]>
  </style>
 </defs>
 <g id="Layer_x0020_1">
  <metadata id="CorelCorpID_0Corel-Layer"/>
  <path class="fil0" d="M290 6936l5247 0 0 -13 -126 0c-6,-12 -5,-3 -4,-10l2 -336c-1,-38 0,-81 0,-118l0 -363c-3,-16 -5,-1 -7,-15 -1,-14 2,-16 -5,-27 0,0 0,-1 -1,-1 -5,-10 -4,-3 -6,-19 0,-10 0,-2 -1,-8l-10 -32c-1,0 -1,-1 -1,-1 -4,-8 -1,1 -4,-5 0,-5 1,-14 0,-18l-18 -66c0,-1 -3,-5 -3,-5 -4,-8 -7,-11 -7,-21 1,-10 2,-8 -3,-11 -2,-19 -2,-12 -7,-26l-5 -10c-2,-10 1,-17 -6,-23 -8,-7 -1,-1 -1,-1 -1,0 -1,-5 0,-6l-6 -22c-4,-10 -4,-19 -4,-31l-2 -1c-7,-4 -9,-12 -10,-22 0,-7 1,-6 -2,-12 -1,-2 -3,5 -3,-10l-10 -25c2,-10 -2,-23 -6,-30l-13 -32c-5,-5 0,5 0,-1l1 -7c0,0 -1,-1 -1,-1 0,-1 0,-1 0,-2 -1,-7 -5,-9 -6,-16 0,-4 1,-3 -1,-9 0,-1 0,-1 0,-2 0,0 -1,-1 -1,-1 0,-1 0,-1 0,-2l-1 -2c0,0 -1,-6 -1,-7 0,-11 -8,-11 -7,-22 1,-13 -6,-15 -9,-27 -2,-5 0,-11 -1,-16 0,-7 -4,-5 -6,-14 -2,-6 -1,-12 -5,-18 0,-1 -1,-2 -1,-2 0,0 0,-1 -1,-1l-2 -4c-4,-7 -4,-16 -3,-25l-5 2c2,-25 -3,-20 -5,-25l-5 -15c-3,-3 -1,5 -2,-3 1,-36 -11,-35 -12,-39 0,-2 1,-9 1,-11 -3,-7 -4,2 -5,-11 0,-13 0,-14 -6,-24 -5,-11 -6,-14 -6,-26l2 -74c0,0 1,-1 1,-1 6,-4 4,2 4,-5 3,-20 6,-12 6,-25 -1,-12 -2,-23 2,-34 0,0 0,-1 0,-1 5,-13 -3,-24 10,-34 -1,-13 2,-16 3,-28 1,-9 0,-22 1,-32 -1,-1 1,1 3,-3 5,-9 1,-5 2,-12 0,-8 7,-9 6,-20l4 -33c2,-9 -1,-19 1,-29 1,-4 6,-4 6,-18 0,-11 1,-8 6,-8l-1 -35 7 -5c3,-5 -1,-20 0,-27l1 -3c2,-5 4,3 4,-13 1,-17 5,-8 5,-37 0,-10 1,-9 6,-16 6,-7 -7,-27 10,-32 7,-3 219,-2 240,-1 5,-14 2,-99 3,-132 0,-45 0,-90 0,-137 0,-30 3,-253 0,-278 -31,-5 -418,-1 -468,-1 -9,0 -29,2 -37,-2 -3,-2 -2,-2 -5,-5 0,0 -1,0 -1,-1 -6,-8 -4,-14 -5,-25l-3 -9c-5,-10 -8,-3 -9,-15l-4 -34c-2,-5 -6,-6 -9,-14 -3,-8 -2,-4 -3,-19 -1,-13 -4,-9 -7,-21 0,0 0,-1 0,-1l-9 -28c-1,-33 -2,-7 -7,-25 -2,-6 -7,-12 -4,-25l-5 2c0,-22 -2,-20 -9,-37l-4 -21c-3,-12 -4,-5 -7,-22l-9 -21c-3,-5 -3,-3 -2,-9 1,-15 23,-21 36,-21 6,-17 15,-7 36,-23l6 -4c0,0 1,0 1,0l8 -3c10,-3 11,-10 14,-10l34 -20c12,-14 5,-6 16,-13l34 -34c9,-7 -4,5 3,-2 0,0 1,-1 1,-1l14 -20c5,-13 9,-1 13,-15 3,-15 0,-3 5,-9l7 -11c2,-4 4,-14 7,-18l3 -1c6,-4 -2,5 1,-1 4,-4 1,4 5,-12 4,-13 14,-23 15,-32 1,-7 -1,-14 2,-21l6 -20c0,0 1,-1 1,-2 5,-6 3,-17 3,-28 -1,-27 4,-13 5,-33l-5 -21c-1,-11 3,-32 -1,-39 -6,-12 -3,2 -6,-10l-5 -24c0,-9 2,-13 -2,-20 -7,-9 -2,3 -4,-12l-1 -3c0,0 -1,-1 -1,-1 -4,-9 -1,1 -3,-5 -1,-4 0,-8 -1,-14 -1,-7 -2,-3 -3,-11 -2,-9 3,-4 -5,-11 -6,-6 -2,5 -8,-17 0,0 -1,-1 -1,-2 0,0 0,-1 -1,-1l-3 -9c0,-3 0,-8 2,-11 -15,4 -10,-16 -21,-24 -6,-4 -2,-8 -6,-16l-7 -9c-5,-8 -3,-10 -10,-17 -6,-8 -12,-18 -14,-28 -1,-5 2,10 -1,-4 -3,-15 3,-13 0,-27l-1 -20c0,-8 2,-3 5,-12 4,-9 2,-29 2,-41 12,-9 2,-29 0,-39 -2,-18 3,-26 -4,-45 -2,-8 -3,-39 1,-46 -11,3 -8,-13 -10,-20 -2,-9 -3,-3 -3,-17 0,-14 -3,-5 -6,-14l-1 -11c-2,-6 -4,-8 -5,-14 -2,-14 -9,-17 -12,-32 0,-3 1,-5 0,-9l-2 -2c-3,-6 -5,-3 -8,-9 -2,-5 2,-3 -9,-26l-11 -21c0,-1 0,-2 0,-2l-9 -16c-1,-1 -1,-2 -1,-3 -6,-14 0,-8 -12,-19 -6,-5 -7,-12 -13,-18l-33 -42c-4,-7 -13,-16 -20,-23l-11 -10c-9,-11 -2,-8 -12,-14 -17,-9 -26,-29 -41,-37 -8,-5 -7,-4 -13,-9l-16 -9c-1,-7 -2,-6 -8,-9 -4,-1 -6,-1 -7,-1l-44 -30c0,0 -1,0 -1,-1l-8 -7c-2,-3 1,0 -8,-4l-26 -10c0,-1 -1,-1 -1,-1 -10,-4 -20,-4 -29,-11 -18,-14 -33,-8 -36,-11l-3 -2c0,0 -1,0 -1,-1 0,0 -1,0 -1,-1 -8,-4 -7,-5 -17,-6 -5,0 -10,0 -15,0 -12,-7 7,-4 -12,-6 -20,-2 -35,-7 -43,-9 -18,-6 -120,-2 -152,-2 -31,0 -18,0 -41,6 -13,3 -18,0 -21,-1l-7 -8c-7,-16 -2,-8 -19,-16 -3,-20 -2,-2 -9,-12 -2,-2 -3,-8 -13,-17l-21 -17c-4,-5 1,-1 -3,-6l-6 -4c-1,0 -2,0 -2,0 0,0 -1,0 -2,0 -3,-16 -8,-12 -13,-18 0,0 0,-1 -1,-1 -2,-3 -3,-1 0,-3l-27 -23c-6,-5 -10,-13 -17,-19 0,0 -1,-1 -1,-1l-12 -10c-8,-4 -2,0 -7,-9 -5,-8 -18,-20 -25,-26 -3,-3 -10,-9 -12,-12 -5,-10 0,-16 1,-17l7 -4c4,-3 0,-13 3,-18l2 -2c13,-10 5,-10 11,-20 3,-6 5,-22 15,-20 -2,-10 3,-28 5,-32 0,0 1,1 3,-6 4,-14 4,-4 8,-25 0,-4 3,-15 5,-19 6,-10 7,0 6,-18 0,-8 -1,-12 -1,-18 1,-8 1,-7 5,-10l0 -58c0,-3 1,-7 1,-10 -1,-14 -8,-18 -6,-32 0,0 1,-4 1,-7 -1,-8 -5,-9 -8,-17 -1,-2 -2,-5 -2,-6 -1,-2 -2,-1 -2,-8 0,-8 0,-11 -3,-17 -2,-4 -3,-5 -5,-8l-37 -69c-2,-6 -10,-12 -10,-13l-28 -33c0,0 0,-1 -1,-1l-32 -34c-10,-5 -14,-15 -28,-20l-11 -9c0,0 -1,-1 -1,-1l-24 -15c-5,-4 -1,-5 -10,-8l-9 -6c-7,-6 -17,-9 -26,-14 0,0 -1,-1 -1,-1l-19 -8c0,-1 -1,-1 -1,-1 -1,0 -2,-1 -2,-1 -1,0 -1,0 -2,-1 0,0 -1,0 -1,0 -4,-2 -4,-2 -7,-4 -1,-1 -4,-2 -5,-3 -1,0 -1,-1 -2,-1 0,0 -1,-1 -1,-1 -8,-6 -1,-4 -10,-5 -9,-2 -7,0 -14,-5l-32 -12c-2,-5 -6,-5 -12,-7 -19,-9 -14,4 -36,-16 -2,-3 -2,-2 -4,-6l-12 -21c-8,-9 -3,-10 -10,-17 0,-1 -3,-3 -5,-5 -8,-11 -1,-10 -3,-12 0,0 -1,0 -1,0 -16,-9 -11,-13 -18,-22 -2,-3 -2,-2 -6,-6 0,0 -1,-1 -1,-1 -1,0 -1,-1 -2,-1l-13 -19c-4,-10 -6,-7 -15,-16l-21 -22c-7,-5 -18,-5 -22,-11l-43 -39c-5,-2 -3,2 -9,-4 -6,-7 -9,-12 -21,-15 -7,-2 -6,0 -11,-9 -4,-6 0,-1 -10,-5l-4 -1c0,-1 -2,-1 -2,-1 -9,-4 -6,-6 -17,-9l-35 -16c-3,-2 2,-4 -1,-2l-69 -25c-8,-2 -8,-4 -19,-5 -24,-2 -28,-11 -53,-10 -22,1 -16,-7 -31,-7l-140 5c-7,6 -24,0 -33,2 -17,4 2,7 -11,4 -6,2 -9,0 -17,3l-21 4c-11,0 -5,0 -11,5 -4,2 -5,-3 -14,2l-23 9c-6,2 -16,3 -21,8 -3,2 4,2 -3,1l-21 9c0,0 -1,0 -1,0 -1,1 -1,1 -2,1 0,0 -1,1 -2,1l-6 3c-10,5 -13,3 -19,10 -9,12 1,2 -15,8 0,0 -1,0 -1,0l-36 21c0,0 -1,1 -1,1l-3 2c-1,0 -1,1 -2,1l-30 23c-1,0 -1,1 -1,1l-20 14c-1,0 -1,1 -2,1 -3,3 -6,5 -5,8 2,4 0,1 1,1 -9,1 -10,4 -23,17 -2,2 -4,5 -4,6 -1,0 -1,0 -1,1l-5 3c-5,5 -5,7 -9,11l-27 26c-2,2 -1,1 -4,3 -2,3 -3,3 -5,7l-14 18c-6,6 -4,11 -12,16 -5,3 -5,14 -11,19 -9,8 -6,15 -13,24 -2,3 -4,3 -6,6 -1,2 -2,4 -3,7 -4,7 -1,2 -3,10l-6 12c-2,4 0,-1 -3,4 -3,5 -1,2 -3,6l-3 7c-5,10 -10,15 -12,25l-17 46c-2,19 -3,8 -7,22l-2 13c-2,7 -1,14 -4,21 -4,10 -5,1 -6,16l-3 34c-3,8 -2,18 -2,27 0,10 -4,19 -4,37l0 34c1,17 2,8 4,18 3,13 -4,14 -11,20 -7,7 -11,5 -22,17 0,0 -2,2 -2,2l-16 12c-5,5 3,-2 -3,2 0,1 0,1 -1,1 -17,16 -19,14 -26,20 -12,10 -10,10 -22,17 -10,5 -12,16 -29,23 -7,2 -2,4 -5,7l-17 17c-3,4 -1,1 -7,1 -8,0 -6,5 -15,10 -13,8 -22,20 -33,26l-12 9c0,0 0,0 0,1l-11 12c-1,2 -5,4 -6,5 0,0 -1,0 -1,0 -10,6 -10,2 -14,8 -10,15 -7,4 -16,13 -3,3 -2,3 -6,6l-20 17c-6,3 -19,10 -16,18 -14,1 -8,-2 -16,5l-20 18c-9,1 -16,16 -26,20 -6,2 -16,13 -29,21 -1,0 -1,0 -2,0 0,1 -1,1 -1,1 -5,3 1,1 -7,8 -1,1 -2,2 -3,3l-2 1c0,0 -1,1 -1,1 -7,7 5,2 -12,12 -9,4 -13,12 -33,25l-24 20c-6,6 7,-1 -3,-1 -5,0 -1,1 -1,1l-9 9c-1,0 -1,0 -1,0 0,1 -1,1 -1,1l-4 4c-8,5 -7,0 -13,7 -6,6 -15,18 -24,23 -3,2 2,-8 -5,1 -9,13 7,-7 -2,3l-8 7c0,0 -1,0 -1,0 -7,7 -8,3 -17,14 0,0 -1,1 -1,1 -1,1 -2,2 -2,3 -3,2 -7,5 -8,7l-3 4c-4,5 -12,6 -24,17 0,1 0,1 -1,2 -5,4 -10,3 -20,14 -13,14 -23,16 -33,27 -6,6 -12,6 -17,12l-4 6c0,0 0,0 0,0l-5 4c-15,8 -12,4 -28,21 -12,14 -7,2 -22,17 0,0 -6,5 -8,6 -4,4 -3,4 -7,6l-19 15c-8,8 -15,6 -18,11l-14 15c-5,5 -7,3 -19,15 -8,8 -14,9 -23,16l-14 15c-1,0 -1,0 -2,1 -1,1 -1,1 -4,2 -7,4 -1,-2 -9,5l-36 31c-8,6 -14,9 -22,17l-3 3c-8,8 -17,10 -23,17 -6,6 -10,10 -19,13 -11,5 -10,12 -22,19 -8,4 2,3 -10,1 0,0 -1,-6 1,2l0 2c0,0 0,0 0,1 -4,9 -13,16 -22,20l-20 17c-8,6 -10,3 -17,10l-8 9c-2,1 -2,2 -4,3l-15 11c-4,2 -8,10 -16,14l-25 21c-4,6 -1,2 -7,4 -8,3 -12,12 -22,17 0,0 -1,0 -1,0l-5 3c-12,5 -2,-3 -7,6 0,0 0,1 0,1 -6,10 -14,8 -15,14 0,0 0,1 0,1 0,0 0,1 0,2 -19,3 -9,9 -30,18l-37 31c-3,3 -4,5 -7,8 -1,0 -1,1 -2,1 0,0 -2,2 -2,2l-25 21c-5,5 0,1 -8,4l-11 7c-12,13 -3,9 -19,18l-12 6c0,0 -1,1 -1,1l-6 6c-12,12 -35,29 -35,29 -23,12 -14,23 -33,22 -1,7 0,9 -4,14 0,0 -1,1 -1,1 0,0 -1,1 -1,1 -11,10 -13,9 -19,21l-5 4c0,1 0,1 0,1l-14 31c-4,18 -3,5 -7,17 0,0 0,1 0,1 -1,1 -1,1 -1,2l-1 16c-12,33 1,80 1,81 0,5 -2,9 0,13 2,5 7,7 7,7 1,16 -2,16 6,23 8,6 3,10 4,11 2,5 1,-2 5,5 4,7 -1,3 3,9 7,10 7,4 10,12 5,12 23,19 29,34 2,6 -1,0 3,7 5,7 11,10 15,18 4,8 1,4 9,10 -5,5 -1,5 -6,5 -8,1 3,0 -9,11l-12 10c-12,6 -20,16 -30,26 -11,9 5,-9 -15,9l-32 26c-6,6 -3,8 -13,11 0,1 -3,0 -14,11 0,0 -1,1 -1,1l-10 10c-7,8 -16,7 -23,16 -6,8 -17,11 -26,21l-54 43c-10,3 4,-5 -2,0l-6 8c-8,9 -14,8 -26,20 -10,11 -25,18 -25,19l-2 3c-5,6 -10,7 -16,11 -4,3 -2,-5 -2,10 -18,-2 -18,22 -36,17 1,7 -22,27 -28,31l13 16c0,0 1,1 1,2l23 25c2,7 1,4 4,10l2 0c8,1 -2,-3 2,1l6 5c2,2 0,-2 1,3 2,6 0,1 3,6l8 11c1,1 2,2 3,2 2,3 8,8 6,17 11,-2 7,4 18,-4 13,-8 1,-3 16,-8 5,-2 13,-14 18,-19l55 -45c11,-5 15,-7 24,-16 30,-31 6,2 31,-24 21,-21 6,-8 25,-19l8 -10c0,0 0,1 3,-2l2 -3c6,-6 12,-7 18,-14l21 -15c7,-3 8,-8 13,-13 0,-1 1,-1 1,-1 1,-1 1,-1 2,-1l25 -19c8,-6 6,-2 9,-8 8,-14 4,-3 15,-11 5,-4 9,-10 13,-14 13,-11 1,4 22,-17l8 -7c7,-4 12,-5 18,-11 0,0 1,-1 1,-1l17 -17c17,-19 13,-4 30,-2 -4,8 -8,3 -1,9l17 20c2,4 1,4 5,7 23,24 16,14 26,19 4,2 7,10 11,13 5,3 19,9 25,7 0,0 1,-4 0,1 -1,1 -1,3 -1,4 1,1 2,1 5,2l8 5c9,4 9,1 18,5l11 2c13,1 8,5 39,5 16,0 34,3 48,-1l18 -5c7,-2 7,-5 15,-5 18,-1 4,0 20,-10l8 -5c3,-3 -3,0 4,-2l10 -6c2,-3 -1,1 4,-4 4,-4 -1,-1 6,-3 14,-4 14,-15 25,-20l11 -7c5,-4 1,-3 5,-3 5,-1 2,-1 9,-11 5,-6 4,0 7,-2 2,-2 4,-4 7,-7 2,-1 7,-5 7,-5l2 -2c3,-2 6,-1 9,-4l5 -8c7,-4 17,-17 24,-17 2,0 8,-6 12,-11l17 -13c1,0 1,-1 2,-1l37 -30c0,-1 3,-3 4,-4 2,-3 0,-1 3,-4 9,-11 14,-7 21,-15 6,-7 2,-5 6,-8 1,0 1,0 1,-1l24 -16c12,-10 3,2 18,-15l10 -9c0,0 0,-1 1,-1 12,-12 11,-5 28,-22l16 -10c6,-3 11,-12 15,-15 0,0 2,-2 2,-2 0,0 0,-1 1,-1l1 -1c4,-4 12,-6 16,-11 0,0 1,-1 1,-1l5 -5c14,-10 4,2 27,-21 4,-4 3,-4 8,-6 11,-7 6,6 9,-10 0,0 0,0 0,0 0,1 -3,1 1,1l2 0c5,-2 1,-3 11,-9 15,-9 7,-7 18,-15 12,-8 4,-12 10,-9 1,0 -3,4 6,-1 5,-3 6,-5 8,-8 18,-21 7,-2 31,-24 0,-1 1,-1 1,-1l8 -7c25,-16 25,-21 33,-26 6,-3 4,-2 9,-7l42 -34c1,-1 1,-1 2,-1 0,0 1,0 1,-1 17,-6 2,-1 21,-15l32 -30c5,-4 4,3 13,-7 6,-7 13,-14 21,-17 7,-2 20,-20 23,-20 3,-1 2,1 7,-4l26 -20c18,-13 8,-13 27,-22l13 -11c7,-7 10,-10 18,-13l4 -3c6,-6 10,-6 12,-10 6,-10 9,-7 17,-15l15 -11c0,0 1,0 2,0l10 -9c10,-12 6,0 19,-13l31 -26c9,-6 11,-13 21,-19 8,-4 13,-12 21,-15 3,-2 -1,1 5,-3l29 -25c7,-4 12,-12 20,-16 11,-6 11,-7 20,-16l12 -12c0,0 1,0 1,-1l19 -13c8,-9 4,-2 10,-6 5,-3 0,2 3,-4 4,-6 -2,0 2,-3l29 -20c12,-14 23,-16 32,-26l35 -29c4,-4 7,-5 11,-8 0,-1 2,-2 2,-2l1 -1c11,-6 -7,1 3,0 6,-1 -2,3 2,-2 0,0 0,0 0,-1l8 -9c3,-5 -4,1 2,-1 8,-1 -4,4 2,-1l4 -3c3,-2 5,-2 5,-2 4,-2 2,-2 9,-8 0,-1 1,-1 1,-2 1,0 1,0 1,-1l17 -12c4,-2 0,0 6,-5 3,-2 1,1 5,-4 6,-7 1,-5 5,-5l32 -28c6,-3 8,-1 12,-7 0,0 13,-13 20,-17l37 -26c1,-1 4,-4 5,-5l11 -11c11,-6 9,-6 19,-15l19 -13c1,0 1,-1 1,-1 2,-1 21,-23 26,-19l2 4c8,1 13,0 20,4 12,7 11,-1 32,7l12 4c1,0 2,1 3,2 12,4 32,0 34,0 9,1 11,-1 16,8 25,-1 106,3 121,-3 18,-8 31,-3 51,-4 2,-4 1,-7 4,-5l15 9c7,4 12,12 18,18l29 29c1,1 6,5 6,5l45 46c4,5 9,8 11,10l5 6c1,0 1,0 1,1 1,0 1,0 2,1 0,0 1,1 1,1 0,0 1,1 1,1 0,0 3,4 3,4 0,1 1,2 2,2l3 5c1,0 1,1 2,1l13 13c1,1 1,1 2,2l5 5c5,6 -2,-1 3,3 0,1 0,1 0,1 1,0 1,1 1,1l51 47c8,6 -4,-9 3,4 5,8 17,18 24,26l16 15c8,9 -2,3 9,9l32 33c6,7 12,9 18,17 5,7 2,1 4,9 0,0 2,-2 7,3l77 74c9,7 -1,-2 7,9l20 20c2,3 2,2 5,5l6 6c0,1 0,1 1,2l7 8c2,3 2,9 2,13 -1,14 -4,12 -6,14 -3,5 0,14 -4,27 -5,16 -2,108 -2,127 0,12 1,8 3,16 3,9 0,13 4,19 6,10 3,21 4,33 2,13 2,-1 5,13l5 17c4,8 0,0 -1,14 12,6 7,-4 8,10 1,11 -2,6 3,9 0,0 1,0 1,0 1,19 0,9 5,17l8 29c2,6 6,5 8,8l8 22c0,0 0,2 1,4 6,12 4,-1 8,7 4,8 2,9 2,18 12,6 9,11 15,20 4,8 12,14 14,22l10 14c7,9 11,10 17,22 7,14 34,29 35,42 1,12 2,-4 13,9 6,7 2,5 5,10l8 8c5,7 -5,-5 2,3l3 2c12,7 16,11 27,23 12,12 11,-1 20,12 2,3 1,1 3,3l8 5c12,12 -1,19 1,39 -12,3 -8,3 -11,12 -3,9 -2,19 -6,29l-7 26c0,1 -2,7 -3,9l-11 34c-7,11 0,7 -4,20 -2,5 -1,1 -3,10 -1,11 -5,12 -7,24 -1,5 0,5 -5,7l1 21c-6,2 -2,0 -6,2 -6,3 3,1 -7,28 -2,5 -3,10 -8,9 6,9 6,15 0,24 -14,18 0,23 -13,28 2,38 -8,22 -11,49 -1,16 -4,9 -7,12l-3 22c-1,4 0,-3 -2,7 -2,14 2,3 -3,11 -11,15 2,1 -8,26l-6 21c-4,17 -7,1 -7,15 0,1 1,5 0,9l-3 11c-6,14 -5,19 -11,31 -3,9 0,20 -5,29 -8,15 -8,0 -8,16l-4 18c-2,6 1,15 -4,20 -3,3 -4,3 -11,4 -22,2 -203,0 -239,0l-134 0c-20,0 -34,-4 -43,7 -6,14 -2,232 -2,268 0,38 -4,251 2,268 7,9 44,5 57,5 20,0 40,0 61,0 20,0 116,-4 124,1 1,0 1,1 2,1 1,2 6,6 6,15 2,32 4,10 6,25 1,10 -3,23 1,29 5,10 4,0 5,6 1,3 0,11 0,14 2,10 5,10 5,29 -1,13 6,15 7,25 2,21 4,5 4,38 0,17 -1,9 5,17 8,12 0,14 3,27 3,11 3,1 4,11 4,26 6,10 4,43 0,6 1,7 4,11 6,8 2,12 3,18l3 21c3,8 0,17 4,24 3,5 3,12 3,17 0,5 0,12 0,15l3 6c8,9 4,9 4,23 0,9 -1,5 2,7l2 1c1,7 1,16 1,21 3,24 6,-8 7,35l3 15c2,5 2,26 1,28 -3,6 -2,-8 -4,10l-2 11c-8,12 -8,26 -13,33 -6,9 -2,9 -4,21 -2,17 -8,15 -10,26 -2,7 2,0 0,10 -2,12 -7,4 -6,20l-2 8c0,1 -1,1 -1,2l-3 6c-1,0 -1,1 -1,1 -4,7 -5,8 -5,16l-7 31c-2,5 -1,12 -3,16 -1,1 -1,1 -1,1l-4 4c-2,3 -1,10 -2,15 0,4 -1,7 -2,8l-2 7c-2,4 -1,2 -3,5 -2,5 -1,1 -3,6l-10 47c-4,19 -6,-6 -7,20 0,2 -1,6 -1,7 -1,7 -1,5 -2,6l-1 4c0,1 0,1 0,2 0,1 0,1 -1,2 -3,20 -2,3 -9,24 0,0 -1,1 -1,2 0,0 0,1 -1,2 -2,10 1,17 -3,25 -6,13 -6,5 -9,13 -4,19 1,7 -3,21 -4,10 0,17 -4,22 -3,3 -1,1 -2,3 -7,10 -7,-3 -8,19l-2 10c-2,6 -1,-6 -2,8 -2,33 -13,23 -11,54l-9 2c4,5 7,3 0,14l-4 21c-5,3 -5,4 -4,13 0,15 -4,8 -7,20l-5 20c-1,18 2,2 -3,10 -3,5 -3,10 -5,17l-5 16c-1,3 -3,20 -7,24l-2 1c-3,3 -1,9 -1,15 0,0 -2,8 -3,9 0,0 -1,7 -2,12l-8 1c3,4 2,14 1,17l-3 11c-3,9 -4,19 -7,26 -4,8 -5,1 -6,12 -3,16 -1,70 0,90 0,20 -1,34 0,58 4,111 -1,217 0,333 1,83 -3,157 0,239 1,19 -3,98 0,111l-1493 1c-3,-6 -2,-8 -2,-14 0,-1 0,-1 0,-1l0 -14c1,0 1,-1 1,-1 0,-1 -2,-4 -2,-10l1 -11c0,0 0,-1 0,-1l0 -24c3,-12 1,6 1,-4l-1 -27c1,-5 -1,-10 0,-16 0,0 0,-1 0,-1 0,0 0,-1 0,-1l0 -6c-1,-3 -1,-4 -1,-6 0,-1 1,-6 1,-6l-1 -36c-1,-8 2,-11 2,-12l-1 -29c2,-5 -1,-4 -1,-12l1 -10c0,0 -1,0 -1,-6 0,-7 2,-3 1,-10l1 -13c0,0 -2,-6 -2,-9l0 -98c2,-8 3,0 1,-7 -1,-8 0,-12 0,-12l-1 -54c0,-1 0,-1 0,-2 -1,-9 3,-6 1,-14l-1 -22c0,-1 1,-6 1,-6l0 -29c1,-4 1,2 -1,-7 -1,-5 2,-11 2,-11l-1 -79c2,-5 2,3 1,-3l-2 -19c-1,-8 2,-9 1,-17l0 -10c0,-2 0,0 0,-5 -1,-3 -1,-4 -1,-6l0 -29c0,0 1,-5 1,-5l-1 -8c0,-1 0,-1 0,-2 0,0 0,-1 0,-1l0 -66c0,-12 2,-2 2,-7 -1,-3 -4,-2 -2,-12 2,-7 3,1 1,-6 -2,-13 1,-10 0,-17l-1 -3c0,0 0,-2 0,-3 0,-15 3,0 2,-8l-1 -32c-1,-1 -1,-1 -1,-2 0,-5 1,-10 1,-11l0 -17c1,-7 1,7 0,-3 0,0 0,-1 0,-1 0,0 0,-1 -1,-1 0,-1 0,-1 0,-2 -1,-7 2,-7 1,-15l0 -8c0,0 0,-1 0,-1l0 -87c-1,-1 -1,-6 -1,-6 0,-1 0,-3 1,-4 0,0 0,-1 0,-1 0,-1 0,-1 0,-2l0 -12c1,-5 1,2 0,-5l0 -41c0,-1 0,-2 0,-2 1,-8 1,5 0,-4 -1,-13 2,-9 0,-19l0 -15c-1,-3 -1,-4 -1,-7l1 -40c0,0 0,-1 0,-1l0 -44c-1,-2 -1,-10 0,-14l-1 -22c0,-1 0,-1 0,-2 -1,-9 3,-6 1,-14l0 -30c-3,-13 2,9 -1,-2l1 -11c5,-17 23,-12 37,-12 19,0 99,4 106,-2 1,-1 1,-2 1,-2l2 -3c0,-1 0,-1 0,-2 3,-19 0,-393 0,-430 0,-24 1,-46 0,-73 0,-34 1,-18 6,-30l-6 -8c-1,0 -1,-1 -1,-1 -7,-9 -62,-3 -79,-3 -38,0 -339,2 -347,-1 -8,-3 -12,-10 -8,-16l3 -7c2,-8 -1,-12 2,-20 6,-19 2,-23 3,-43 1,-9 0,-17 0,-29l0 -447c0,-16 -4,-9 -5,-36 -4,-3 -3,0 -5,-8 -3,-13 -3,-4 -7,-23l-13 -22c-5,-8 0,-5 -7,-12 0,0 -2,-2 -2,-2 -1,0 -1,-1 -2,-1 0,0 0,0 -1,0l-15 -15c0,0 0,0 0,0l-6 -9c-1,-1 -1,-1 -1,-1 -3,-5 2,0 -3,-4l-19 -18c-3,-5 -39,-20 -43,-21 -3,-1 -2,-1 -5,-2 -7,-2 0,0 -6,-2 0,0 -1,0 -2,0l-20 -6c-1,0 -2,0 -2,-1 -13,-4 -13,3 -26,-5 -2,-1 -5,-2 -8,-2l-377 0c-63,1 -132,-1 -193,0 -49,1 -124,-3 -167,0l-12 4c-6,3 -19,0 -24,5l-8 3c-15,1 -13,2 -26,6l-12 5c-13,8 -2,3 -14,5l-4 3c-8,6 -9,2 -19,11 -13,11 -12,8 -17,18 -3,9 4,-3 -5,3 -7,4 -7,11 -15,19l-22 36c-2,7 2,1 -4,7 -8,8 -6,9 -8,20 -3,13 -6,6 -6,25 0,21 -5,24 -5,24 -4,44 -1,102 -1,147 0,32 -2,364 0,369 1,1 4,2 5,6 0,1 1,4 1,7 3,14 3,6 6,13 6,21 -15,17 -29,17l-384 -3c-14,0 -9,0 -10,5 -9,0 -1,-1 -2,1l-1 31c0,1 0,1 0,2l0 33c1,14 0,-3 -1,6 -1,14 3,18 1,33l0 31c0,1 -1,4 -1,4 1,8 1,-2 1,6 2,14 0,-3 -1,6l1 7c0,1 0,2 0,2l0 92c1,16 -2,4 0,17l1 21c0,2 -1,3 -1,3l0 15c0,5 -1,-3 0,5l1 40c0,1 -1,4 -1,4l0 2c0,0 -1,0 -1,1l1 15c0,1 0,-3 0,3l-1 13c0,2 1,7 1,9 1,8 1,-7 1,3 0,0 0,1 0,1l-1 60c0,0 0,1 1,1 0,5 -2,6 -1,12l0 20c2,14 0,-2 -1,6l2 10c0,0 0,1 0,1l-2 24c1,9 1,0 4,12l113 -1c10,1 13,-2 18,11 0,0 1,6 1,7 1,14 -2,18 -1,39 3,46 1,77 0,126l0 112c0,4 1,6 1,11 1,12 -4,-3 0,4 -2,18 -1,38 -1,55 0,8 1,16 1,23l0 116c-3,25 2,58 0,80 -2,17 -1,36 -1,53l1 60c-1,10 -1,25 0,35 0,15 1,3 0,17l-1 147c0,4 0,11 1,17l0 98c2,35 -1,136 -1,180 0,5 1,6 1,12 1,11 -3,-3 0,3 -2,18 -1,38 -1,55 0,7 3,73 0,75 -11,7 -120,2 -145,3l1 13zm3464 -120c6,-12 4,-55 3,-71 0,-8 0,-1 -1,-11 0,-4 1,-12 1,-17l0 -249c0,-6 -1,-5 0,-11l0 -37c0,-8 0,-12 0,-20l3 -220 20 -5c0,0 1,0 1,0 6,0 2,1 11,2 20,2 62,-2 74,-1l78 0c21,2 16,0 31,1l259 -1c12,2 24,0 36,0 7,0 1,0 9,1l12 -1c1,0 5,0 5,0l27 0c1,0 4,1 6,1l144 -1c4,-1 15,2 30,0 9,-1 -2,0 6,1 6,0 1,-1 7,-1l290 0c1,0 20,-1 22,2 8,-1 17,-1 22,-1l53 0c9,1 6,-1 14,-1l190 0c7,-1 6,1 13,0 10,0 -3,0 7,0l90 0c8,-2 7,1 12,0 12,0 -3,0 8,-2 9,-2 8,2 15,0l17 1c7,2 4,-4 5,3 6,5 2,-1 4,8 1,0 1,7 1,7l0 28c-2,20 -1,42 -1,62 1,4 1,5 1,9 1,6 1,2 1,5l-2 90c0,29 -2,71 1,97l0 113c1,7 1,-1 0,6 -1,9 -1,27 0,39 2,19 -1,44 -1,63l1 58c-8,69 21,60 -58,60l-1319 0c-48,0 -91,1 -140,0 0,-1 -1,-11 -8,-7zm1508 -639c-2,1 2,-2 0,0zm-27 0c1,1 -3,-2 0,0zm-834 -1c-2,2 2,1 1,1 0,0 5,-5 -1,-1zm-272 0c-2,2 2,1 1,1 0,0 5,-5 -1,-1zm-372 70l0 0zm0 136c0,0 1,-1 1,0l-1 0zm0 80l0 0zm0 56l0 0zm0 80l0 0zm0 136c0,0 1,-1 1,0l-1 0zm70 -872c12,-9 5,-8 8,-19l5 -16c4,-8 5,1 6,-13 2,-18 4,-24 12,-29l6 -43c0,0 0,-1 0,-1l2 -4c3,-5 6,-6 7,-11 3,-7 0,-13 2,-21 2,-9 3,-1 3,-14 1,-13 0,-6 6,-15l11 -43c2,-13 5,-5 7,-21 2,-10 0,0 4,-8 3,-7 1,-13 4,-18 11,-18 3,-27 11,-43 5,-9 4,-4 3,-13 0,-9 9,-15 10,-25 1,-11 -2,-7 2,-16 3,-4 1,2 3,-5l11 -35c2,-9 1,-15 5,-23l7 -15c3,-7 2,-12 5,-18 8,-12 -2,-17 5,-29 3,-6 9,-12 9,-17 0,-7 -5,-3 6,-13 -1,6 2,2 7,2l105 0c10,3 29,0 32,0l46 -1c0,0 1,0 1,0l2 2c0,0 0,1 0,1l78 -2c3,0 -7,1 5,0 10,0 -4,-1 8,0l55 1c12,1 18,-2 28,-1l96 -1c5,2 -4,-3 1,1 0,0 0,1 0,1 1,0 1,1 1,1 25,-4 39,0 65,-1 9,0 12,-4 15,1 26,-4 47,-1 74,-1 18,0 26,-3 38,-1 9,2 29,0 31,0l44 -1c8,0 0,0 5,1l80 2c10,-2 20,-4 29,-2l27 0c12,-2 31,2 45,0 1,0 7,-1 8,-1 8,1 -8,0 5,2l53 -1c14,-1 33,1 49,0 9,-1 5,1 18,1 8,0 11,-5 15,1 7,9 -5,5 10,9 -4,15 2,14 3,23l13 48c2,15 -3,-7 0,4 1,1 1,1 1,2 3,7 4,3 4,12 -2,17 -3,8 4,20l4 10c0,0 0,1 0,1 3,8 2,3 2,11 1,15 4,6 10,26 2,6 1,-2 2,7 1,4 0,3 0,6 2,11 5,8 5,30 9,8 4,2 8,12 6,13 -2,27 12,23 -3,6 -2,18 -1,21 0,0 1,1 1,1 4,11 7,21 8,33 1,12 2,5 3,6 8,11 5,23 10,34 6,13 3,-6 6,21 1,14 2,6 3,10 0,0 2,11 2,11 3,11 1,0 4,5 0,1 -1,8 0,10 2,14 -2,0 7,10 4,8 -3,19 7,28 8,7 4,1 4,20l17 46c2,4 1,28 6,39l6 12c0,1 1,1 1,2l3 18c0,15 1,14 6,24 6,14 10,30 10,46 10,7 5,3 9,11 6,16 1,20 5,31 4,8 10,17 -2,20l-359 0c-123,0 -245,0 -367,0 -122,0 -245,0 -367,0 -121,0 -248,-4 -368,0 -2,-9 -2,-20 3,-26 3,-4 2,-9 4,-15 2,-7 2,-14 7,-21 5,-8 4,-25 11,-37l3 -15c0,0 0,0 0,-1 1,-4 5,-6 5,-11 1,-10 1,-19 7,-27l4 -20c-1,-16 -1,2 -2,-6zm1371 -26c0,0 0,0 0,0 0,0 1,1 1,1 0,0 1,-4 -1,-1zm-148 -500c-3,2 1,1 0,0 0,0 0,0 0,0 0,0 0,0 0,0zm-80 0c-3,2 1,1 0,0 0,0 0,0 0,0 0,0 0,0 0,0zm-81 0c-2,2 2,1 1,1 0,0 0,-1 0,-1 0,0 0,0 -1,0zm-191 0c-3,2 1,1 0,0 0,0 0,0 0,0 0,0 0,0 0,0zm-81 0c-2,2 2,1 1,1 0,0 0,-1 0,-1 0,0 0,0 -1,0zm-191 0c-3,2 1,1 0,0 0,0 0,0 0,0 0,0 0,0 0,0zm-81 0c-2,2 2,1 1,1 0,-1 0,-1 0,-1 0,0 0,0 -1,0zm-80 0c-2,2 2,1 1,1 0,0 0,-1 0,-1 0,0 -1,0 -1,0zm-111 0c-3,2 1,1 0,0 0,0 0,0 0,0 0,0 0,0 0,0zm-80 0c-3,2 1,1 0,0 0,0 0,0 0,0 0,0 0,0 0,0zm-81 0c-2,2 2,1 1,1 0,0 0,-1 0,-1 0,0 -1,0 -1,0zm-31 81c2,3 -3,-2 0,0zm-19 66c0,0 -2,-2 -2,-2l0 0c1,1 1,3 2,2zm-12 38c0,0 -2,-2 0,0zm-4 9c0,0 -1,-1 -1,-1 0,0 0,0 0,0 0,0 -2,5 1,1zm-2 11c0,0 0,0 0,0 0,0 1,0 1,0 -1,0 -4,-2 -1,0zm-87 296c2,2 -2,-2 0,0zm-3246 985c-1,0 -2,0 -2,1l-19 1c-7,-11 -11,-5 -9,-25 5,-12 -5,-1193 3,-1215l1438 1c-3,37 -1,302 -1,345 1,115 2,228 0,341 -1,118 0,253 0,364l1 133c0,3 1,37 0,41 -4,20 -45,14 -75,14l-692 0c-24,0 -635,2 -644,-1zm-162 -1657l1717 0 2 22c0,2 -1,6 -1,6l0 47c0,1 0,1 0,1 -1,1 0,-1 0,2l0 38c0,0 0,1 0,1l0 55c0,0 0,0 0,1 0,0 1,4 1,6l-1 9c0,10 3,12 0,22 0,0 0,1 0,1l0 11c1,1 1,2 1,3l0 9c0,0 0,1 0,1 0,1 0,1 0,2l-2 31c0,1 1,0 1,2l0 10c0,0 0,1 0,1 -3,4 -7,4 -11,4l-470 0c-22,0 -44,0 -65,0l-260 0c-23,0 -43,0 -65,0 -4,0 -11,0 -17,0l-666 0c-12,0 -21,0 -32,0 -19,1 -125,3 -132,-4l0 -281zm1716 259c-1,1 1,-1 0,0zm0 -24c0,1 0,0 0,0zm0 -7c0,-1 0,-1 0,-1 -2,2 0,1 0,1 0,0 0,0 0,0zm0 -24c1,0 2,-3 0,-1 -2,1 0,1 0,1zm0 -25c-1,1 1,-1 0,0zm0 -24c1,1 0,0 0,0zm0 -7c1,0 6,-5 0,-1 -2,1 0,1 0,1zm0 -25c-1,1 1,-1 0,0zm0 -24c0,1 0,0 0,0zm0 -7c0,-1 0,-1 0,-1 -2,2 0,1 0,1 0,0 0,0 0,0zm0 -24c1,0 3,-3 0,-1 -2,1 0,1 0,1zm0 -25c-1,1 1,-1 0,0zm0 -24c1,3 0,-2 0,0zm0 -7c0,-1 0,-1 0,-1 -2,2 0,1 0,1 0,0 0,0 0,0zm1773 -387c-8,-6 -8,-20 -4,-31l1208 0c-1,9 0,15 -1,26 0,18 -3,10 -4,20 -4,27 10,13 -7,25 0,11 1,24 -2,33 -6,17 -1,11 -3,21 -1,5 0,2 -2,6 -4,8 -5,5 -4,12 0,4 3,9 -1,17 -12,23 2,18 -8,53l-4 11c-3,5 -6,0 -4,23 2,29 -3,15 -5,33 0,5 1,11 0,15 -1,17 -7,4 -6,19 1,18 -4,6 -6,22 -1,12 3,18 -2,29 -6,15 0,3 -2,20 -1,13 1,1 -4,8l-6 29c-7,23 6,27 -27,27l-319 0c-59,0 -121,1 -180,0 -50,0 -529,4 -536,-3 -6,-5 0,-13 -6,-22 0,0 -1,-1 -1,-1l-2 -4c0,-1 0,-1 0,-2 0,0 0,-1 0,-1 0,-1 0,-5 0,-7 1,-36 -1,-8 -7,-34 -1,-3 -2,-4 -2,-6 -2,-8 -2,-9 -2,-18 0,-22 -3,-13 -7,-23 -4,-15 4,-26 -3,-44 -13,-30 -9,-7 -9,-35 0,-8 1,-7 0,-15l-8 -33c-1,-3 -3,-9 -3,-9 0,0 0,-1 0,-1 0,-6 2,-6 -1,-17 -2,-9 -4,-5 -4,-18 -1,-38 -8,-39 -10,-73l0 -4c0,-18 1,-4 -5,-16 0,0 0,-1 -1,-1l-1 -10c0,-7 0,-14 1,-21zm1151 287c0,0 0,0 0,0 -2,0 0,0 0,0 0,0 0,0 0,0zm12 -92c1,0 3,-4 0,-1 -4,3 0,1 0,1zm34 -183c-2,1 4,-3 0,0zm-1178 132l0 0zm37 194c-2,2 0,0 0,0zm-2281 -109c-8,-4 -10,0 -16,4 -21,13 -42,8 -65,8 -216,2 -432,-1 -647,0 -17,0 -56,4 -73,-4l-16 -12c-10,-6 -7,-4 -12,-13 -4,-6 -9,-9 -12,-17 -6,-16 -3,-230 -3,-261 0,-39 -2,-234 0,-258 3,-18 5,-19 8,-20l9 -10c4,-4 -7,4 3,-2 14,-11 13,-11 30,-16 13,-4 -2,-6 17,-6 13,0 31,-2 44,2 3,12 2,11 -4,19 -4,7 -6,13 -7,20 -3,10 -10,18 -13,25 0,0 0,1 0,1l-18 44c-2,5 -1,2 -3,6 -9,13 -4,9 -8,20 -6,17 -1,7 -11,20 -5,7 -2,6 -3,13 -2,6 0,2 -2,5l-1 2c-17,29 -6,12 -14,33l-7 7c10,5 8,3 22,4 0,0 1,1 1,1 0,0 0,1 0,1 4,4 4,1 7,0 17,-6 122,-2 143,-2l64 1c1,0 2,0 2,0l13 2c7,3 9,5 12,11 6,11 17,20 26,30l9 10c9,14 13,13 19,22l6 9c7,4 -8,-4 3,1 9,3 9,11 13,17l21 22c1,1 1,1 1,2 14,13 10,16 29,34l9 11c9,16 15,6 17,24l11 -10c0,-1 1,-1 1,-1l8 -8c9,-8 0,4 4,-4l7 -14c0,0 1,-1 1,-1l14 -15c9,-16 20,-22 31,-34 7,-9 3,-6 8,-15 3,-6 12,-11 17,-16 6,-6 6,-7 9,-11 5,-7 5,1 14,-18l20 -22c3,-3 0,2 4,-3 4,-5 2,-11 10,-16l11 -5c18,-5 44,-3 64,-3 17,0 161,-4 173,3l5 -6c8,-11 2,-16 -3,-25l-8 -17c-6,-10 -5,1 -5,-13 0,-7 -2,-5 -6,-13 -4,-8 -1,-6 -5,-12 -9,-11 -2,-15 -9,-24 -7,-8 -3,-4 -11,-21 0,0 0,-1 -1,-2 -9,-25 -9,-8 -17,-40 -1,-4 0,-2 -3,-5l-15 -42c8,-5 11,-3 24,-4 7,0 4,-1 11,0l22 7c29,8 13,11 28,18 5,2 4,0 6,7 2,12 10,19 11,30l0 123c0,13 -1,25 0,41l0 309c0,42 3,22 -10,49l-5 8c-4,5 -7,1 -8,9 -1,2 1,4 -1,6zm23 -192c0,-1 -1,-1 -1,-1 -3,2 1,1 1,1 0,0 0,0 0,0zm-3 -363c-2,2 2,-2 0,0zm-24 -36c-2,1 2,-2 0,0zm4 168c-2,3 1,-1 0,0zm0 40c-2,2 0,-1 0,0zm-4 1c0,1 2,-2 0,0zm-237 0c-1,1 3,-3 0,0zm-40 44c0,1 5,-7 -1,-1l1 1zm-16 23c-1,2 1,-1 0,0zm-68 80c-1,3 1,0 0,0zm-139 -66c0,0 1,-2 0,0zm-8 -13c-2,1 3,-3 0,0zm-12 -12c-1,1 2,-2 0,0zm-32 -37c-3,2 1,0 1,0 0,0 -1,0 -1,0 0,0 0,-1 0,0zm-32 -20c2,0 0,1 0,0zm-4 1c-1,1 2,-2 0,0zm-224 -29c-2,2 2,-2 0,0zm44 -100c-3,3 3,-3 0,0zm22 -46c-3,3 4,-4 0,0zm14 -34l0 0zm-99 564c-2,2 1,0 0,0zm824 25c0,0 1,-3 -1,-1 -2,3 1,1 1,1zm-577 -601c1,-1 1,-1 2,-1l209 -3c40,2 74,0 108,0 27,1 35,-4 44,7 11,14 6,0 10,14 4,13 1,-9 4,23 6,5 7,2 10,11 0,1 0,1 0,2 4,13 7,18 6,25 0,1 -1,3 -1,4l-1 3c-10,3 -56,1 -69,1 -21,-1 -39,-3 -44,7 -9,20 -18,21 -33,38 -7,7 -2,3 -5,10 -5,9 -13,12 -20,20 -9,11 -9,19 -15,24l-2 2c-9,6 -5,7 -11,11l-12 5c0,0 -1,-1 -1,-1 -17,-26 -13,-7 -28,-34l-6 -8c-22,-21 -22,-26 -26,-30l-27 -26c-13,-13 -4,-12 -11,-17 -7,-3 -91,0 -113,-2l3 -10c5,-16 -2,-12 3,-17 0,0 0,0 0,0 19,-17 4,2 13,-23 4,-11 10,-17 12,-23 2,-5 2,-9 1,-12zm268 105c-3,2 2,-3 0,0zm-280 -69c-2,2 2,-2 0,0zm148 112c-2,2 2,-1 0,0zm2420 -218c89,-1 178,1 266,0 87,-1 171,-1 258,0 216,2 437,0 654,0 43,0 87,0 133,0 109,2 219,-1 328,0 22,1 69,-5 78,6 4,5 2,4 1,12l-1 62c0,6 2,5 1,14l0 14c-2,18 1,5 1,19 0,2 -1,6 -1,8l0 22c0,0 0,1 0,1 0,1 -1,-1 -1,3l1 94c0,0 0,1 0,1 0,0 0,1 -1,1 0,5 1,4 1,7 0,1 0,2 0,3 0,0 0,1 0,1 0,0 0,1 0,1l-1 10 -1717 0 0 -279zm1716 46c-1,1 1,-1 0,0zm0 -32c0,0 0,0 0,0 -2,2 0,1 1,1 0,0 -1,0 -1,-1zm0 224c-1,1 1,-1 0,0zm1 -31c0,0 4,-5 -1,-1 -2,1 0,1 1,1zm0 -81c0,1 2,-2 -1,0 -2,1 0,0 1,0zm-1277 -295c0,-4 0,-11 1,-14 2,-7 1,-3 4,-8 5,-7 2,-10 5,-18l3 -16c1,-4 -3,7 1,-3 4,-10 0,-18 5,-23 1,0 3,-2 3,-2l2 -4c0,-1 3,-7 3,-8l1 -6c4,-28 4,-1 9,-31 1,-12 3,-3 3,-16 1,-16 0,-1 5,-11 4,-10 -3,-9 5,-22l13 -34c3,-7 -1,-8 1,-16 2,-8 1,-1 2,-4 0,0 0,-1 0,-1l6 -15c3,-7 1,-1 1,-8 0,-8 7,-7 7,-26 0,-22 13,-4 12,-31 -1,-11 3,-17 6,-27 0,-1 1,-1 1,-2 0,0 0,-1 0,-2 2,-5 2,-10 5,-15 7,-10 1,-17 5,-28l4 -6c0,-1 1,-1 1,-2 6,-7 7,-3 6,-16 -1,-9 3,-6 4,-17 5,-36 9,-12 12,-36l3 -12c6,-12 -1,-13 6,-23l6 -13c8,2 10,0 16,3 10,4 2,2 13,5l57 17c7,3 0,1 6,3 13,5 17,-3 38,6 8,3 20,1 33,1 17,1 10,7 33,6l66 1c10,-1 7,0 9,-7l36 1c5,1 3,1 3,1 0,0 3,-1 3,-1 4,-2 5,-3 5,-3 14,-6 24,-1 38,-8l15 -4c0,0 1,-1 1,-1 7,-4 21,-2 29,-6 15,-6 16,-4 28,-7 10,-3 -2,-4 13,-6 1,0 3,1 8,-1 0,6 -1,6 1,10 0,1 2,3 2,3 5,5 2,0 4,8l2 4c3,7 1,17 6,24 4,5 -2,3 5,2 -8,10 -3,15 1,20 1,2 2,4 3,5 0,0 1,2 1,2l2 12c1,18 5,4 5,29 1,14 3,8 6,12 5,9 1,20 6,29 8,7 6,-1 7,12l5 25c13,5 3,11 10,29l5 12c3,11 0,6 1,13 3,13 2,3 6,12 3,9 -2,11 3,21 1,1 3,5 3,6 6,11 3,-2 5,12 0,1 0,1 0,2l0 11c4,6 4,-1 6,8 1,5 1,8 2,15 4,14 8,16 10,23 4,21 1,17 11,38 9,22 3,42 13,51 5,5 4,-7 4,9l9 36c1,6 -1,-5 0,4 1,8 0,0 5,8 3,6 2,21 4,26 3,10 2,-1 2,15 -5,3 -15,2 -22,2 -118,2 -240,-2 -355,0l-192 0c-67,1 -128,-4 -195,0 0,-9 -2,-9 1,-17 2,-7 0,3 2,-5 4,-13 -3,-8 5,-12zm-4 15c-2,2 1,-2 0,0zm744 -43c0,0 2,-1 0,0zm-44 -151c-2,2 2,-2 0,0zm-12 -43c-1,1 2,-3 0,0zm-32 -112c-1,1 2,-3 0,0zm-24 -80c-1,1 2,-2 0,0zm-156 -69c-2,2 1,-1 0,0zm-352 80c-1,2 0,-1 0,0zm-44 148c1,3 0,0 0,0zm680 -185c1,-7 1,-14 0,-21l-11 -18c-1,-8 0,-11 -3,-17 0,-1 0,-1 -1,-2 -2,-5 0,-8 -1,-13 -1,-14 -5,-13 -9,-23l-1 -13c-1,-10 -6,-11 -6,-26 0,-11 -1,-9 4,-16l11 -8c2,-1 8,-2 8,-2 10,-5 -7,8 2,-2l1 -1c5,-9 -2,-2 7,-9l7 -8c3,-3 2,0 9,-4l17 -15c9,-6 -2,-2 12,-14l10 -10c4,-5 8,-7 11,-10l27 -32c6,-11 -2,-3 6,-12 12,-13 8,-13 14,-21 2,-4 5,-3 8,-9 9,-15 9,-11 13,-18l15 -24c5,6 6,4 7,11 1,6 -3,2 4,11l9 23c2,6 4,3 6,11l2 16c3,9 2,19 2,29 0,15 7,15 7,29 0,1 0,1 0,1 0,1 0,1 0,2l-1 12c-1,0 -1,1 -1,1 0,1 -1,3 -1,3 -8,16 0,17 -7,43l-11 28c0,0 0,1 0,1 0,1 -1,1 -1,2l-19 32c-1,1 -8,8 -11,11l-20 18c0,1 0,1 -1,1l-36 28c-10,5 -6,7 -17,12l-42 23c-6,0 -12,-1 -19,0zm120 -71c0,0 -1,1 0,0zm48 -236c1,1 3,-5 0,-1 -3,4 0,1 0,1zm-76 48c-1,1 1,-1 0,0zm-12 12c-1,1 1,-1 0,0zm-100 93c2,-2 -1,1 0,0zm60 139c1,-1 -1,1 0,0zm68 -44c-1,-1 0,3 0,0zm-924 -749c0,-2 0,-7 0,-10l2 -7c0,-1 1,-2 1,-2 4,-13 10,-17 13,-25l12 -24c0,0 1,-2 1,-2l8 -15c8,-9 6,-14 10,-17 11,-9 15,-18 25,-28l5 -4c12,-11 11,-19 18,-26l3 -2c4,-3 4,-5 8,-9 8,-7 3,-1 9,-4 12,-5 17,-19 28,-26 6,-4 2,1 9,-4 6,-6 6,-11 13,-14l2 -1c5,-1 2,0 6,-2l18 -11c10,-9 28,-16 45,-26 10,-6 -1,-2 11,-5l33 -12c1,0 2,0 2,0 6,-2 -1,0 5,-2 4,-2 0,-1 7,-3l22 -6c0,0 1,-1 1,-1l5 -3c3,-2 40,-3 49,-7 9,-3 -1,-2 12,-5 12,-1 41,0 52,0 18,0 47,-3 56,3 9,5 1,3 11,3 17,0 16,6 34,5 13,-2 14,-2 25,5 15,11 10,4 25,7 9,2 -7,0 6,4 2,1 9,1 10,1 8,3 10,5 10,12 16,-1 9,1 19,4l55 29c3,1 0,-2 6,3 2,1 4,3 4,4l25 17c5,2 1,2 8,8l14 12c11,7 0,4 9,11l33 31c2,4 2,3 9,5l1 3c1,6 7,10 10,13l8 13c0,1 1,2 1,2 2,4 2,4 5,7 11,9 5,0 10,12 2,5 -5,1 6,6 0,1 2,1 2,1 4,2 3,2 4,7 3,10 9,18 14,29l8 21c1,3 0,0 2,4l6 12c5,17 5,10 12,24l1 10c1,23 0,4 7,19 4,9 -2,6 1,17 5,19 2,-3 4,10 1,5 2,9 8,8 -4,7 -3,9 -2,16l2 38c7,9 7,2 3,6 -4,3 -5,2 -6,10 -4,0 2,-5 6,7 6,18 -7,31 -7,33 2,10 12,2 8,12 -2,6 -3,4 -5,10 -5,16 0,-4 0,11 0,4 0,0 -1,5 -3,12 3,14 -3,29l-7 22c-2,9 2,2 -1,12 -2,8 -2,2 -5,9 -3,7 -1,7 -2,13 0,9 -7,14 -10,21 -3,6 -3,15 -7,23 0,0 -1,1 -1,1l-9 14c-2,5 -1,14 -4,19 -1,2 -3,0 -8,6l-4 10c-3,9 -7,10 -11,16l-29 40c0,1 0,1 -1,2l-70 69c-21,13 -9,14 -23,20 -11,5 -2,3 -14,11l-39 23c-3,2 -6,6 -8,7 -7,3 0,-2 -11,2 -1,0 -3,1 -4,1l-42 16c-1,1 -1,1 -2,1l-11 6c0,1 0,1 -1,1l-19 6c-7,2 -16,-1 -25,1l-23 5c-10,3 4,1 -9,4 -9,3 -84,1 -101,1 -59,0 -25,1 -44,-4 -6,-2 -10,-1 -15,-3 -9,-2 6,-1 -12,-4l-11 -1c-20,-9 -7,1 -27,-9 -9,-5 -21,-9 -36,-12 -8,-1 -9,-7 -17,-11l-11 -4c-25,-15 -31,-12 -41,-22l-25 -18c-7,-4 -4,-2 -10,-7 -10,-9 -12,-13 -24,-19 -9,-5 -13,-13 -22,-19l-30 -32c-4,-7 -2,-10 -12,-16 -8,-5 -3,-7 -6,-13 -5,-8 -7,-3 -11,-14 -2,-6 1,-1 -3,-5 -11,-15 -4,-10 -14,-21 -5,-5 -4,-6 -5,-8l-2 -2c0,-1 -1,-2 -1,-3 -2,-4 -1,0 -3,-5 0,0 -1,-2 -1,-3 0,0 -1,-1 -1,-2l-4 -11c-4,-5 -3,1 -7,-9 -6,-15 0,-11 -12,-28l-2 -5c-1,-3 0,-9 -1,-12 0,-12 -4,-6 -4,-25 -14,-8 -4,1 -7,-10 -3,-11 -4,-2 -5,-19l-2 -21c-5,-8 -5,-3 -5,-14l0 -102c0,-40 8,-5 7,-47 0,-10 1,-16 4,-22 14,-25 1,10 9,-22 3,-13 0,2 3,-8 1,-4 0,-13 1,-20l11 -6zm528 625c-1,1 1,-1 0,0zm82 -22c-3,5 1,-2 0,0zm22 -10c-3,3 2,-2 0,0zm11 0c-1,0 0,1 1,1l-1 -1zm101 -72c2,0 -1,0 0,0zm12 -12c3,1 -1,-1 0,0zm32 -32c-2,-1 1,2 0,0zm12 -19c-2,0 1,-1 0,0zm73 -129c0,1 1,-2 -1,0 -2,3 1,0 1,0zm27 -109c0,0 1,1 1,1 0,0 0,1 1,1l-2 -2zm-260 -477l0 0zm-424 10c-2,1 2,-2 0,0zm-80 56c0,-1 0,-1 -1,-1l1 1zm-32 24c0,0 2,-1 0,0zm-48 60c-1,3 0,0 0,0zm-36 52c0,0 2,-4 -1,-1l1 1zm-32 84c-1,2 0,0 0,0zm-12 32c0,0 0,0 -1,0l1 0zm1 214c5,5 -6,-6 0,0zm23 66c-2,2 2,-2 0,0zm124 180c-2,2 1,-1 0,0zm92 60c-2,2 2,-1 0,0zm42 23c1,1 1,-4 0,-1 -2,3 0,1 0,1zm-1939 -1091c5,-8 12,-13 20,-19l28 -27c11,-3 5,2 14,-8 10,-10 16,-6 25,-18 0,-1 0,-1 0,-2l2 -2c3,-5 -3,2 1,-1l13 -13c13,-5 9,-6 19,-12 15,-10 22,-20 33,-24 12,-5 13,-13 21,-20 0,0 1,0 1,-1l21 -14c2,-2 3,-3 7,-5 9,-5 11,-9 19,-17 10,-10 19,-12 28,-21 19,-19 17,-12 25,-18l27 -24c13,-12 18,-12 28,-21 10,-11 12,-15 24,-20 16,-8 5,-15 28,-17 0,1 0,2 0,2l4 8c9,12 0,16 17,26 0,3 0,6 0,9 2,12 1,2 3,8l0 2c1,1 1,1 1,2l4 9c2,4 1,3 3,5 0,1 1,1 1,2l18 37c8,9 -4,-1 6,3 7,3 0,1 4,1 0,0 -1,1 -1,1l0 2c-1,1 -2,3 2,7l34 46c13,24 45,50 68,73 7,7 20,21 26,27 5,3 5,-1 11,4l28 23c2,2 2,3 4,4l12 6c0,1 -1,2 -1,2 -3,6 -7,12 -14,15l-20 14c-14,14 -10,7 -19,15 -6,6 -11,14 -18,17 -8,3 -8,6 -14,12 -8,8 -13,4 -22,14 -4,4 -7,6 -11,9l-34 27c-5,3 1,-1 -6,4 -3,2 -5,6 -6,6l-26 22c-3,2 -8,6 -10,9 -1,1 -1,2 -2,3l-17 10c-11,10 -6,9 -20,15 -6,2 -12,12 -18,17l-10 6c-13,6 -4,7 -12,12l-13 8c-12,6 -11,10 -21,18 -5,5 -9,4 -15,8 -8,7 -5,10 -16,17 0,0 -1,0 -1,0l-8 5c-3,2 -6,6 -9,9l-27 22c-6,5 -12,4 -18,8 -6,5 0,-1 -2,4l-14 13c-3,2 -13,9 -21,18l-4 5c-2,1 -4,2 -6,3 -4,2 -2,0 -6,3l-15 17c0,0 -1,0 -1,0 0,0 -5,1 -6,2l-11 9c-20,22 -22,14 -35,28 0,0 -1,1 -1,1 -1,1 -2,2 -3,2l-31 28c-3,3 -3,3 -4,6 -6,-3 -7,-4 -13,1 -5,5 -4,9 -13,14l-20 16c-5,7 1,3 -6,6 -10,4 -13,9 -21,15 -9,8 -9,4 -19,13 -4,5 -6,4 -9,9l-13 10c-8,4 -7,6 -11,11 -4,4 -16,7 -35,28 -7,8 -12,6 -23,19l-11 8c-8,4 -15,14 -22,17 -17,5 -17,14 -33,27l-7 4c0,0 -1,1 -1,1l-8 6c-11,5 -15,10 -24,18l-83 66c-10,7 -1,5 -6,9 0,0 -1,1 -2,1 0,0 -8,2 -16,9 -25,25 -17,13 -26,22l-15 14c-11,9 -10,3 -24,20 -8,9 -15,7 -22,15 -10,12 -8,8 -17,12l-6 5c-20,18 -20,14 -30,28l-1 1c-14,11 -14,4 -30,20l-25 22c-5,7 -19,10 -25,17 -5,6 -9,13 -19,10 2,10 1,3 -7,11l-23 21c-15,5 -11,14 -32,23 -1,1 -1,0 -3,3l-31 27c0,0 -1,0 -1,1l-5 4c0,1 -1,1 -1,1 0,1 -1,1 -1,1 -6,4 6,-2 -4,2 -13,5 -20,21 -48,38l-23 8c-6,2 -12,3 -18,1 -10,-3 -16,-2 -25,-7l-9 -4c-1,-1 -1,-2 -3,-5 -7,-9 -14,-10 -18,-19 -3,-6 -9,-11 -14,-17 -1,0 -1,-1 -2,-1l-3 -6c-4,-12 -15,-21 -21,-26 -1,0 -1,-1 -1,-1l-6 -7c-5,-12 -11,-13 -16,-21 -8,-15 -8,-10 -14,-18 -6,-7 -2,-11 -14,-21l-5 -4c0,-1 -1,-1 -1,-1l-3 -3c-6,-7 0,-1 -10,-17 -5,-7 -1,0 -8,-6l-30 -34c0,0 -1,-1 -1,-1 0,-1 -1,-2 -1,-2 0,0 0,-1 0,-1 -2,-3 1,6 -2,-3 -2,-9 3,-3 -3,-8 -14,-11 1,4 -5,-3 0,0 -1,-1 -1,-1 0,0 0,-1 0,-1l-4 -5c-7,-7 0,-5 -7,-3l2 -7c-2,-7 7,-11 -2,-20l-4 -4c4,-10 4,-3 8,-13 1,-5 -1,-6 2,-15 6,-21 8,-4 14,-18 5,-11 0,0 12,-10l19 -20c1,0 1,-1 1,-1l20 -12c12,-10 17,-10 20,-16 3,-6 6,-6 12,-10l16 -13c19,-19 24,-17 30,-23 5,-5 8,-11 15,-12 2,-1 3,0 5,-1l7 -7c0,0 1,-1 1,-1l21 -18c6,-5 13,-19 22,-18 8,1 2,1 5,-2l23 -21c11,-4 13,-11 22,-18 5,-3 21,-11 23,-15 0,0 0,0 0,-1 0,0 0,0 0,-1l11 -10c13,-13 23,-15 31,-22l7 -6c2,-2 2,-3 4,-5l15 -10c8,-4 14,-12 20,-18l26 -21c16,-9 33,-29 37,-30l10 -5c0,0 1,-1 1,-1l11 -9c10,-8 18,-19 29,-27l2 -2c3,-2 2,-1 5,-2 9,-5 12,-13 21,-16 5,-1 19,-16 29,-22l9 -8c0,0 1,-1 1,-1 0,0 0,0 0,-1 0,0 1,0 1,0l7 -8c5,-5 10,-3 15,-8 2,-2 4,-4 5,-5 23,-22 6,-9 20,-16 9,-3 16,-16 24,-20 0,0 6,-2 7,-2 7,-3 3,0 9,-8 10,-16 12,2 14,-20 9,5 18,-10 23,-14 9,-7 0,2 10,-5 3,-2 6,-7 10,-9 10,-7 5,1 14,-8l19 -19c5,-4 7,-3 12,-8l10 -11c0,0 1,0 1,0 3,-1 5,-2 5,-2l23 -20c8,-5 13,-6 21,-14 10,-10 16,-20 20,-9 1,-11 0,-6 5,-12l4 -2c8,-6 13,-7 19,-15 1,0 1,-1 1,-1 1,-1 1,-1 1,-1 13,-17 15,-11 25,-19 7,-5 3,-4 4,-6l11 -9c3,-1 0,0 4,-1 11,-6 10,-11 20,-17l39 -31c7,-3 24,-16 22,-24l11 2zm-739 1093c-2,1 1,-2 0,0zm104 -80c0,-1 0,-1 -1,-1 -3,4 1,1 1,1 0,0 0,0 0,0zm160 -129c-1,2 2,-2 0,0zm53 -42c-3,4 4,-4 0,0zm28 -21c0,0 -1,-1 -1,-1 -3,4 1,1 1,1 0,0 0,0 0,0zm75 -61c-1,1 1,-1 0,0zm12 -12c-1,1 1,-1 0,0zm44 -32c-1,1 1,-1 0,0zm12 -12c-1,1 1,-1 0,0zm48 -36c-1,1 1,-1 0,0zm8 -7c-1,0 1,-2 0,0zm3 -1l0 0zm13 -12c-3,3 4,-3 0,0zm56 -43c0,-1 0,-1 0,-1 -3,4 1,1 1,1 0,0 -1,0 -1,0zm13 -12c0,-1 -1,-1 -1,-1 -3,3 1,1 1,1 0,0 0,0 0,0zm75 -61c-1,1 0,-1 0,0zm328 -260c-1,0 0,-1 0,0zm17 -12c-3,3 1,-2 0,0zm19 -19c1,0 4,-5 0,-1 -5,4 0,1 0,1zm12 -5c0,1 0,0 0,0zm20 -20c-1,1 1,-1 0,0zm4 0c0,0 0,0 0,0 -4,3 1,0 1,0 0,0 -1,0 -1,0zm68 -56l0 0zm76 -60c2,0 -1,0 0,0zm12 -12c3,0 -1,-1 0,0zm44 -32c0,0 1,0 0,0zm12 -12c0,1 0,0 0,0zm44 -32c-2,1 2,-1 0,0zm-12 -19c0,0 2,-2 0,0zm-178 -195c0,0 0,-1 0,-1 -4,3 0,1 0,1 0,0 0,0 0,0zm-66 -90c-2,2 2,-2 0,0zm-56 43c-2,2 2,-2 0,0zm-49 37c-2,2 2,-2 0,0zm-124 101c6,-5 -1,0 -2,1 -2,4 2,-1 2,-1zm-31 23c-2,2 1,-2 0,0zm-117 92c-1,2 2,-2 0,0zm-167 136c-2,1 1,-2 0,0zm-12 12c-2,2 1,-1 0,0zm-20 12c1,-1 -1,1 0,0zm-12 12c2,0 -1,1 0,0zm-12 8c-2,1 2,-2 0,0zm-56 44c-1,1 2,-2 0,0zm-12 12c-2,1 2,-2 0,0zm-5 -1c-4,3 1,1 1,1 0,0 -1,0 -1,0 0,-1 0,-1 0,-1zm-80 69c0,-1 0,-1 0,-1l0 1zm-7 -1c-3,3 1,1 1,1 0,0 -1,0 -1,0 0,0 0,-1 0,-1zm-68 61c-1,2 0,-1 0,0zm-13 7c-3,3 1,1 1,1 0,0 0,0 0,0 0,-1 0,-1 -1,-1zm-79 61c-2,2 3,-3 0,0zm-8 8c-1,1 2,-2 0,0zm-12 12c-2,1 2,-2 0,0zm-56 48c1,-1 -1,1 0,0zm-48 32c-3,2 2,-2 0,0zm-64 56c0,0 2,0 0,0zm-12 4c2,-1 -1,1 0,0zm-92 76c-1,1 2,-2 0,0zm-73 55c-4,3 1,1 1,1 0,0 -1,0 -1,0 0,0 0,-1 0,-1zm-75 101c-2,2 2,-2 0,0zm75 116l0 0zm12 13c0,0 0,-1 0,-1 -3,3 1,1 1,1 0,0 -1,0 -1,0zm2145 -899c-4,-2 -3,-1 -7,-2 -11,-3 -19,-12 -9,-23 9,-10 6,-7 25,-8 5,-9 10,-6 16,-11l20 -13c1,-1 1,-1 2,-1 5,-2 2,0 5,-2 5,-4 19,-24 23,-13 -2,-11 2,-8 12,-13 7,-5 15,-15 21,-22 17,-17 17,-7 28,-21 3,-3 0,0 3,-4l24 -25c0,0 0,-1 1,-1 0,-1 0,-2 0,-2l7 -9c3,-2 0,0 5,-4 2,-3 3,-3 5,-6 14,-13 8,-8 12,-17 4,-8 4,0 14,-16l15 -24c6,-9 6,-3 11,-15 4,-8 4,-5 3,-15 3,6 9,1 11,-3l1 -9c1,-7 2,-11 9,-16 13,-9 17,7 26,12 4,2 -1,-1 2,1l31 32c3,6 0,7 8,11 5,2 3,-3 7,4 5,9 3,12 17,14l0 12c8,-4 14,7 16,11 3,4 6,4 10,9l2 3c5,8 11,9 19,17 0,1 1,1 1,2l10 6c6,4 0,6 8,12 7,5 3,-1 8,4 0,0 6,2 6,16 1,0 4,-1 4,-1l7 6c6,8 17,6 17,23 8,-4 9,-1 14,6l12 11c3,3 2,3 3,5l10 7c7,4 5,4 5,14 16,0 18,12 16,16 12,1 4,-3 11,4l17 15c0,1 0,6 0,9 4,0 6,0 10,1 8,4 0,9 13,16 7,4 4,6 11,10l32 30c4,4 2,5 3,14 -12,3 -8,0 -14,5l-8 5c-20,10 -23,14 -36,21l-29 20c-5,5 -5,8 -8,8 0,0 -3,-1 -3,-1 -6,1 0,-1 -3,2 -4,3 -6,5 -9,8 -4,4 0,2 -5,6 -7,7 -19,13 -26,21 0,0 -2,2 -2,2l-45 45c-2,3 -3,3 -5,5 -11,9 -22,25 -29,38 -2,5 -4,5 -9,9 -9,9 -3,5 -6,13 -2,4 -5,4 -8,9l-8 17c0,0 -1,1 -1,1 0,1 -1,1 -1,2 -5,7 -7,15 -14,24 -3,4 0,6 -3,10 -1,1 -4,4 -7,6 -5,-6 1,-5 -14,-5l1 -10c-9,-2 -12,-5 -18,-11 -2,-1 -2,-2 -4,-3l-9 -10c0,-1 -1,-1 -1,-2l-11 -13c-6,-7 -10,-6 -16,-11 -6,-6 -2,-4 -2,-13l-13 -4c-7,-4 -11,-14 -16,-20 -5,-6 -11,-6 -16,-14 -2,-3 -2,-3 -4,-5 0,0 -1,0 -1,0 -1,0 -1,-1 -2,-1l-8 -5c0,0 -1,-1 -1,-1l-4 -4c0,0 0,-1 -1,-1l-26 -30c-4,-6 1,-1 -4,-5l-15 -12c-5,-5 -7,-12 -13,-15 -10,-5 -12,-6 -12,-19 -2,1 5,5 -7,0 -6,-2 -5,-4 -9,-8l-11 -13c-5,-6 -7,-3 -13,-8 -3,-2 -3,-7 -5,-10 -3,-6 -9,-8 -13,-12l-10 -11c-6,-5 -9,-18 -20,-13 -5,-30 -25,-15 -16,-30 -22,1 -19,-9 -20,-14zm-632 -248c-6,-14 -5,-4 -15,-15l-11 -11c-11,-7 8,3 -3,-1 0,-10 0,-3 2,-5 -5,-15 -9,-11 -17,-25 -4,-7 -10,-12 -13,-21l-5 -12c0,0 -1,-1 -1,-1l-14 -27c-5,-11 1,-6 -7,-6 1,-5 1,-4 -1,-10l-25 -77c-4,-11 -6,-14 -6,-28 0,-41 -6,-24 -7,-41 -2,-27 -2,-75 3,-86 5,-11 4,-27 4,-38 0,-8 0,-7 4,-10l1 -13c5,-2 3,-3 8,-2 -8,-12 -3,-15 -1,-18 6,-8 3,-10 6,-21 2,-8 7,-15 9,-21l0 -2c0,-2 -2,-1 1,-5 6,-6 6,-16 11,-25l8 -15c4,-9 -3,-1 6,-9 4,-4 2,-2 5,-11l1 -4c1,-1 1,-3 2,-4 4,-13 2,-2 11,-12l27 -39c20,-20 13,-17 21,-26 9,-11 5,-1 10,-9 6,-8 11,-14 18,-17 0,-1 1,-1 2,-1 11,-5 20,-21 29,-26 10,-6 2,2 9,-3l16 -11c1,-1 1,-1 2,-1 0,-1 1,-1 1,-2l7 -5c1,0 1,-1 2,-1l65 -35c0,0 -3,0 2,0 9,0 -4,7 2,1 4,-3 4,-4 9,-6l63 -20c7,-3 16,-2 24,-2 15,-2 5,-4 17,-6l14 -3c15,-8 57,-3 75,-3 28,-1 15,1 26,5l27 5c7,3 14,1 22,2l35 10c4,1 9,-1 13,2 5,7 0,6 11,4 6,-1 1,-2 4,1 7,7 12,4 21,9 7,4 0,4 13,5 4,1 9,1 13,1 3,9 2,8 12,13l38 22c1,0 2,1 2,1l28 21c5,6 7,8 14,10 7,2 11,7 18,15 0,0 3,4 4,4 10,13 24,19 33,32 6,9 3,13 14,22 11,9 0,1 9,14 2,4 4,6 8,9 9,10 14,17 18,29l1 3c4,11 9,10 14,20 9,21 8,12 16,38l15 40c1,4 1,3 1,4 0,0 -1,7 -1,9 -1,11 4,7 8,16 5,13 3,20 4,35 2,13 5,9 5,35l0 78c1,3 1,8 -1,14 -6,23 -1,20 -4,41 -1,12 -4,12 -8,18 -10,16 0,2 -6,25 -3,10 0,19 -10,17 5,11 -2,17 -4,25 -6,20 -15,18 -16,29 -1,14 -2,9 -9,17l-20 36c-6,10 -3,3 -7,6 -3,3 -3,7 -5,11l-4 7c-14,13 -14,16 -24,28l-8 8c0,0 -1,1 -2,2l-30 30c-4,4 2,-2 -3,2l-3 3c0,0 -1,0 -1,0 -6,3 -12,11 -19,15 -11,8 -6,-1 -14,8 0,0 -1,0 -1,0l-3 4c0,1 -1,2 -1,3l-46 32c-1,0 5,2 -3,-1 -8,5 -8,-1 -19,8l-70 25c-1,0 -1,1 -2,1l-33 6c-9,0 -4,1 -12,7l-50 -1c-3,7 -2,7 -12,7l-42 0c-9,0 -4,1 -6,-6 -15,1 -34,3 -46,-1l-72 -19c-8,-5 -7,-7 -10,-7 -3,-1 -14,1 -22,-4l-26 -12c-4,-3 3,2 -3,-1 -6,-4 0,0 -8,-6 -10,-8 -1,-2 -11,-6 -10,-4 -13,-8 -21,-12l-4 -2c0,0 -2,-1 -3,-2l-19 -13c-7,-6 -10,-3 -16,-10l-11 -11c-20,-19 -14,-7 -20,-16 -3,-4 -6,-5 -9,-8l-5 -7c-2,-3 -8,-5 -13,-13zm944 -432c17,-3 25,9 40,18 6,4 6,7 11,10 5,5 1,-1 9,2l3 2c0,0 1,1 1,1l2 4c4,4 0,0 5,3 0,0 1,0 1,1 1,0 1,0 2,1l28 21c4,2 3,2 6,5l23 26c9,14 10,10 16,19 7,13 10,12 11,15l4 15c6,5 9,14 10,20 3,15 2,-2 4,8 1,6 -1,9 1,14 5,14 4,0 6,11 1,4 -1,8 0,14 1,14 7,4 5,30 2,4 1,-6 -4,3 -1,3 -1,5 -1,9 0,4 0,15 0,19 0,0 -1,1 -1,1 0,0 0,1 0,1l-2 4c-1,0 -2,-7 -4,5 -1,10 2,10 -2,22l-19 49c-1,8 2,0 -1,7 0,0 -1,0 -1,1 -4,7 -8,11 -17,14l-4 -8c-7,-10 -14,-18 -28,-19 2,-21 -24,-26 -33,-41l-24 -25c0,-1 -1,-1 -1,-1 0,-1 -1,-1 -1,-1 0,-1 -2,-3 -3,-4 -4,-5 -11,-12 -16,-16l-10 -6c-3,-4 -7,-13 -14,-15l-5 -2c-1,-5 -3,-27 2,-35 5,-8 4,-10 6,-21 2,-14 2,-1 3,-13 3,-22 0,-60 0,-84 0,-16 1,-18 -2,-30 -3,-9 -1,-10 -2,-18 -1,-13 0,-2 -5,-12 0,0 0,-1 -1,-2l0 -16c1,-8 0,-2 2,-6zm132 101l0 0zm-16 -24c-2,2 1,-1 0,0zm-108 97c2,0 -1,0 0,0z"/>
  <path class="fil0" d="M3499 1762c-6,1 -6,1 -16,-11l-3 -3c-1,-2 -4,-3 -4,-3l-8 -8c-6,-2 -3,3 -9,-3l-20 -14c-5,-5 -11,-8 -14,-14 -9,0 -8,2 -15,2 0,-1 0,-2 0,-2l-13 -7c-8,-5 -12,-1 -21,-4l-4 -1c0,-1 -1,-1 -1,-1l-22 -8c-7,-3 -62,-1 -68,0 -12,4 -1,2 -11,6 -3,1 -4,0 -7,2 -1,0 -2,0 -2,0l-3 2c-5,3 -14,-2 -30,6l-12 6c0,0 -20,6 -28,12 -6,4 2,0 -5,4l-26 18c-6,6 6,-6 -4,1 -9,8 -3,9 -9,9 -5,0 0,-2 -4,3 0,0 0,1 0,1l-18 24c-9,8 -12,9 -16,20 0,0 -1,1 -1,1l-2 5c-6,20 -4,5 -12,24 -3,6 0,0 -5,5 -6,5 -2,-2 -2,3 1,11 -1,5 -5,15l-5 26c-3,19 -9,-11 -7,67 0,4 -2,28 0,33 5,12 4,0 8,20 4,23 6,4 9,30l1 5c7,17 16,28 27,46 6,10 4,0 7,14 6,1 7,-1 10,5l5 9c9,14 22,19 34,28 0,0 1,1 1,1 4,3 -2,-3 3,3 6,10 2,5 13,8 11,3 14,13 33,14 1,0 1,4 2,6 4,0 6,0 10,0 10,3 -3,0 7,3l32 7c5,2 6,6 12,7 14,3 37,-2 51,0 8,1 8,6 5,0 21,0 10,-4 23,-7 6,-1 6,0 12,-2 6,-2 -2,-1 12,-3 8,0 5,2 13,-2l11 -6c10,-5 8,-1 11,-4 3,-3 0,-1 3,-3 10,-5 -3,2 9,-2 17,-5 2,-3 9,-6l7 -3c14,-8 4,-7 23,-14l37 -36c1,0 1,0 1,0l32 -56c0,0 1,-1 1,-1 3,-6 3,-12 7,-19l4 -8c0,0 0,-1 1,-1 3,-10 0,-14 2,-21 2,-11 6,12 6,-28l0 -74c-1,-10 -5,-5 -7,-16 -2,-19 -6,-24 -13,-44 -4,-11 -8,-11 -11,-17 -5,-13 -12,-19 -17,-31l-1 -3c-1,0 -1,-1 -1,-1 -2,-3 1,0 -3,-1l-3 -1c-6,-5 -7,-2 -6,-12zm-240 279c-4,-14 -10,-13 -14,-15 -9,-4 -9,-5 -14,-13 -5,-9 6,2 -4,-4 -8,-5 3,2 -4,-2 -13,-9 -6,-14 -11,-24l-12 -26c0,-1 -3,-2 -4,-12 0,0 0,-1 0,-1l0 -2c1,-38 -1,-11 6,-31 1,-6 -1,3 0,-5 1,-1 1,-7 9,-19l2 -3c5,-8 4,-14 9,-20 5,-8 6,-4 9,-7l21 -21c0,0 1,-1 1,-1 14,-9 10,-1 20,-8 0,0 1,0 1,-1l2 -2c7,-7 15,-4 40,-4 25,0 32,-4 52,12l15 6c10,5 -2,-2 6,7 7,8 0,-2 7,5 7,8 -8,-2 13,14l5 9c4,13 9,14 12,26 4,13 4,8 5,19 0,6 -1,14 -1,20 1,10 1,22 -5,29 -12,17 -1,-3 -5,5 -3,5 2,5 -3,16 -6,12 -1,8 -8,14 -20,18 -2,8 -16,16l-8 9c-3,3 -3,3 -6,4 -5,3 -2,0 -9,5 -22,17 -13,-1 -27,9 -15,10 -52,3 -68,-1l-4 -2c-16,-6 -11,-2 -12,-1zm122 -200c-4,3 2,1 1,1 0,0 3,-4 -1,-1zm-123 -6c1,1 -2,-2 0,0zm-56 80c1,1 -2,-2 0,0zm1 39c1,-1 -3,3 0,0zm56 81c2,-2 -2,2 0,0z"/>
  <path class="fil0" d="M4345 3304c2,-2 -2,2 0,0zm285 -12c2,-2 -1,2 0,0zm-303 0c0,-1 -3,2 0,0zm315 -12c1,-2 -1,1 0,0zm8 -8c1,-1 -2,2 0,0zm12 -12c2,-2 -2,2 0,0zm12 -12c2,-2 -2,2 0,0zm-409 -24c2,-2 -2,3 0,0zm106 -183c3,0 3,6 8,-8 2,-4 24,-29 38,-34l10 -6c0,0 1,0 1,0l2 -2c10,-7 20,-2 30,-7 10,-5 8,-7 16,-6 1,0 2,0 4,0 10,-1 6,5 13,8 4,0 11,0 15,0 4,0 3,0 7,1 0,0 1,0 1,1 1,0 2,0 2,0l4 2c10,4 2,-1 11,7 19,17 -4,-9 31,26 14,13 6,6 15,22 3,7 4,6 6,10 4,9 -3,0 2,13l4 13c6,16 -7,-15 4,6l3 19c-1,5 -10,13 -12,31 0,10 -9,21 -17,28 -16,15 -1,12 -14,20 -5,3 -6,1 -14,8 -17,18 -7,5 -21,11l-3 2c-11,6 -7,-2 -15,4 -1,0 -1,1 -2,1l-4 3c-8,3 -27,-3 -38,3 0,-4 1,-4 -4,-7 -8,-5 -3,3 -18,-5 -9,-4 -4,1 -11,-2 -13,-6 -19,-14 -28,-23 0,0 -1,0 -1,-1 -1,0 -1,-1 -1,-1 -1,0 -4,-4 -5,-5 -20,-20 -6,-7 -19,-29l-1 -2c0,-1 -1,-1 -1,-2l-3 -6c-1,0 -1,-1 -1,-1 -5,-12 -4,-66 -3,-67 1,-5 6,-6 9,-12 1,-3 1,-9 0,-13zm224 49c-3,-3 3,3 0,0zm-157 -99c2,2 -2,-2 0,0zm-68 68c2,2 -2,-2 0,0zm57 144c1,0 0,0 0,0 0,0 0,0 0,0 0,0 -2,3 0,0zm279 -18c2,-3 6,-5 1,-1 0,1 -1,1 -1,1zm12 -49c1,-1 -2,2 0,0zm-484 -16c0,0 -1,2 0,0zm484 -64c2,-2 -2,1 0,0zm-20 -63c2,-3 -1,1 0,0zm-12 -25c2,-2 -2,2 0,0zm-421 0c0,0 0,0 0,0 0,0 1,0 1,0 0,0 -3,2 -1,0zm397 -36c2,-2 -2,2 0,0zm-12 -12c2,-2 -2,1 0,0zm-8 -8c3,-2 -1,2 0,0zm-4 -4c2,-2 -2,1 0,0zm-312 -8c1,-1 -1,1 0,0zm280 -12c2,-2 -2,2 0,0zm-261 0c0,0 1,0 1,0 0,0 0,0 0,0 0,0 -3,2 -1,0zm17 -12c2,-1 0,0 0,0zm70 -21c-5,0 -15,-1 -19,0l-75 35 -41 32c-5,6 -8,15 -18,24 -11,10 -4,-2 -9,12l-18 35c-5,21 -6,11 -9,21 0,0 0,1 -1,1 -2,7 -3,19 -8,28l-1 11c0,5 0,8 0,14 0,7 -5,10 -6,19l-1 19c0,2 0,3 0,5 2,13 5,5 7,16 1,5 0,9 0,13l4 21c3,9 4,24 9,30 1,1 7,5 4,1 1,15 0,15 7,24l10 17c4,10 5,6 12,15 7,10 0,6 12,17l20 20c6,7 1,3 9,7l12 8c1,0 2,1 2,2 4,2 0,0 3,1 11,5 3,1 11,8l17 9c8,4 17,10 25,12 8,2 3,-1 10,3l18 6c11,4 -4,-1 4,1 14,4 23,-3 38,6 6,3 26,2 34,2 17,-2 0,-6 14,-7 4,-1 13,1 19,0 8,-1 2,-1 5,-2l25 -8c3,-1 4,-1 6,-1l44 -22c2,-2 1,-1 4,-2 6,-4 6,-8 11,-10 1,0 4,-1 5,-1 13,-7 47,-44 55,-57 7,-10 7,-3 9,-14 1,-1 -5,1 4,-6 4,-4 3,2 3,-4 1,-5 0,-9 3,-14 0,-1 2,-3 3,-4l3 -6c0,0 2,-3 2,-4 0,-1 1,-3 1,-4l10 -26c2,-8 -4,-12 2,-20l2 -3c5,-12 1,-49 2,-64 0,-14 -7,-13 -6,-29l-7 -20c0,0 -2,-2 -2,-3l-3 -10c0,0 0,-1 0,-1 -3,-16 -6,-11 -10,-22 -2,-8 1,-4 -3,-8l-5 -7c-3,-6 -8,-9 -9,-15 0,-3 5,1 -2,-4 -6,-5 0,2 -5,-4 -4,-5 0,1 -3,-5 -2,-4 0,-2 -2,-5 -4,-9 -16,-20 -18,-20 0,-1 -1,-1 -1,-1 -3,-2 -1,-1 -4,-3 0,0 -2,-4 -2,-4 -1,0 -1,-1 -1,-1l-4 -4c0,0 -1,0 -1,0l-86 -44c-7,-3 -3,-5 -13,-6 -4,-1 -8,0 -12,0 -16,-2 -2,-5 -32,-4 -2,0 -6,0 -11,0 -7,0 -12,-1 -20,0 -10,1 -28,-2 -30,0l-2 4z"/>
  <path class="fil0" d="M1681 5836l-244 -1c-4,0 -12,0 -15,0 -16,-1 -9,-4 -13,1l-77 -2c-10,-1 11,-2 -4,1l-66 0c-11,-1 -8,-2 -13,-1l-84 1c-4,0 -12,0 -15,0 -16,-1 -9,-4 -13,1l-46 -3c-1,0 -1,2 -6,2 -16,1 -19,-3 -28,-1 -17,5 -79,0 -79,0 -15,3 -78,-1 -80,0 -20,4 -66,-7 -75,9 -3,6 -3,113 0,118 6,15 47,8 69,9 15,1 32,0 47,0l305 0c10,1 13,0 26,0 6,0 15,0 21,0l71 0c6,0 16,0 23,0l363 0c17,-8 8,-28 9,-39 0,0 1,-9 1,-15 -1,-9 -2,-2 -1,-11 2,-10 1,-27 1,-38l-1 -13c0,0 0,-1 0,-1 0,-1 1,-8 -6,-14 -5,-5 -5,-4 -21,-4l-47 -2c-4,1 4,-3 -1,1l-1 2z"/>
  <path class="fil0" d="M822 6266c23,3 748,2 808,1l110 0c23,1 18,-12 18,-38 0,-6 0,-12 -1,-18l1 -11c1,-10 -2,-13 -1,-21 3,-21 -1,-24 0,-31 0,0 1,-4 1,-8 -23,-12 -8,-6 -59,-7 -22,0 -51,0 -71,0l-780 0c-32,-1 -28,0 -27,83 1,19 0,32 1,50z"/>
  <path class="fil0" d="M1757 6560c0,0 0,-1 0,-1 0,0 0,-1 0,-1 3,-23 -1,-15 0,-28l0 -77c0,0 0,-1 0,-1l-1 -6c0,-9 3,-11 -14,-12 -5,0 -12,1 -17,1l-624 0c-63,0 -227,-3 -277,0l-3 10c0,0 0,6 0,7 0,22 -2,94 3,111l932 0 1 -3z"/>
  <path class="fil0" d="M655 4210c1,0 -2,2 0,0zm131 -52c2,-2 -2,2 0,0zm-211 -16c0,0 -2,2 0,0zm-30 -22c2,-2 -2,3 0,0zm-7 -8c0,0 0,1 0,1l0 0c0,0 0,0 0,-1zm-56 -48c2,-1 -2,2 0,0zm-25 -20l1 1c0,0 -1,0 -1,-1zm-12 -12c0,0 1,0 1,1 0,0 0,0 0,0l-1 -1zm-12 -12c0,0 1,0 1,1l0 0c0,0 -1,-1 -1,-1zm169 -19c2,-2 -1,0 0,0zm-178 -47c0,-1 6,-3 2,-1 0,0 -5,6 -2,1zm90 -34c3,-3 -2,2 0,0zm-12 -12c3,-3 -3,2 0,0zm-108 77c4,9 17,24 27,29 14,6 26,22 37,34 10,9 15,7 35,28l22 21c1,1 1,1 2,1 0,0 1,1 2,1 11,5 20,18 29,26 6,5 8,4 14,9l20 18c8,9 5,7 16,14 4,3 2,5 8,10l20 17c17,17 13,6 33,25l47 43c4,5 1,1 5,5 13,13 6,6 19,15 1,-3 1,-4 4,-7 0,0 1,-1 1,-1l9 -8c0,-1 1,-1 1,-2 8,-8 -1,-5 7,-13l16 -16c5,-7 8,-8 10,-10l13 -14c2,-3 0,-1 3,-5l17 -18c-1,-14 -4,-17 -14,-24 -2,-1 -3,-2 -5,-3l-11 -10c0,-1 0,-1 0,-1 -1,-1 -1,-1 -1,-1 0,-1 -1,-1 -1,-1 -4,-5 3,1 -3,-3l-35 -26c-9,-6 0,2 -4,-5l-8 -8c-6,-4 -2,-5 -16,-12l-3 -1c0,0 -1,-1 -1,-1 0,0 -1,-1 -1,-1 -5,-4 -3,-2 -7,-6 -3,-5 -1,-3 -5,-7 -5,-7 -7,-5 -12,-13 -2,-3 -10,-11 -17,-14 -10,-4 -4,4 -10,-4 -6,-9 -17,-22 -27,-27 -14,-8 -6,-3 -18,-14 0,0 -1,0 -1,-1l-15 -15c-2,-2 -2,-1 -6,-5l-38 -33c-3,-2 -4,-5 -6,-6 0,0 0,-1 -1,-1l-14 -16c-2,-2 0,-1 -5,-3 -10,-3 -17,-10 -23,-19 -3,-6 1,-2 -3,-4l-21 -10c-7,3 -8,8 -13,12 -11,7 -3,-1 -10,9l-30 36c-4,3 -2,5 -5,10l-27 26z"/>
  <path class="fil0" d="M2010 4120c1,-1 -1,2 0,0zm-168 0c2,-1 -2,3 0,0zm181 -12l-5 6 5 -6zm43 -32c2,-2 -2,2 0,0zm-205 -1c3,-3 1,1 1,1 0,0 -5,4 -1,-1zm273 -55c3,-4 1,2 0,1 0,0 -3,3 0,-1zm-193 -12c3,-3 1,0 1,0 0,0 -3,2 -1,0zm-30 197l33 -28c0,0 2,-1 2,-2 6,-5 8,-9 15,-12l35 -28c1,-1 1,-1 2,-1l14 -12c3,-3 6,-6 8,-9 10,-11 11,-5 20,-14 17,-15 8,-9 26,-20 9,-6 19,-19 20,-19 7,-7 7,-4 13,-9 1,0 1,-1 2,-1l42 -38c8,-7 1,0 11,-5l8 -7c9,-8 10,-13 4,-21 -7,-7 -19,-16 -25,-24 -1,-1 -3,-9 -9,-16l-13 -13c-8,-8 -1,-5 -9,-15l-18 -16c-1,0 -1,0 -2,-1l-10 -5c-19,27 -28,23 -36,31 -1,1 -6,7 -6,7l-35 29c-5,4 -10,12 -22,16l-8 9c-1,0 -1,1 -1,1l-26 20c-8,7 -13,15 -19,17 -6,2 -4,0 -12,8l-16 17c-10,9 -9,2 -24,16 -5,5 1,2 -7,5 -8,4 -1,-1 -7,8 -4,5 -1,1 -7,5 -11,9 -7,9 -16,15l-4 3c-10,8 1,21 8,28l7 10c2,3 1,1 1,2 3,3 3,-4 9,9 2,3 2,6 3,8l8 8c5,2 7,7 11,11 0,0 1,1 1,1l2 2c3,5 14,20 27,30z"/>
  <path class="fil0" d="M1341 4157l6 -10c0,0 1,1 1,-4l-1 -172c-1,-41 6,-27 -66,-28 -12,0 -25,-1 -37,0l-15 -1c-4,-2 -4,-4 -11,-4 2,69 1,140 0,203 0,21 7,16 29,15 31,0 63,0 94,1z"/>
  <path class="fil1" d="M3598 2500c4,2 2,2 2,-4 -13,-1 -13,-4 -20,-15 14,-12 5,-8 20,-9 11,-1 5,1 7,-5 -19,1 -16,-2 -25,8 -10,11 -2,20 9,23 4,1 3,0 7,2z"/>
  <path class="fil1" d="M2966 2252c2,-2 2,1 1,-5l-13 -14c-6,-5 -8,-9 -15,-13 -2,2 -2,-5 -2,5 11,4 -8,-6 3,1l11 11c10,11 9,1 15,15z"/>
  <path class="fil1" d="M592 6822c-1,0 -2,-1 -2,-1 0,0 -1,0 -2,-1l-14 0c-20,-20 0,-21 -12,-21 -2,20 2,14 9,25l19 -1c0,-1 1,-1 2,-1z"/>
 </g>
</svg>
